<svg width="56" height="56" viewBox="0 0 56 56" fill="none" xmlns="http://www.w3.org/2000/svg">
<rect width="56" height="56" rx="28" fill="#0040DD"/>
<path d="M38.9317 20.4242L40.4101 19.5002H38.6667H17.3334H15.59L17.0684 20.4242L27.7351 27.0908L28.0001 27.2565L28.2651 27.0908L38.9317 20.4242ZM38.6667 36.5002H39.1667V36.0002V22.6668V21.7647L38.4017 22.2428L28.0001 28.7439L17.5984 22.2428L16.8334 21.7647V22.6668V36.0002V36.5002H17.3334H38.6667ZM38.6667 17.8335C39.8573 17.8335 40.8334 18.8096 40.8334 20.0002V36.0002C40.8334 37.1907 39.8573 38.1668 38.6667 38.1668H17.3334C16.1429 38.1668 15.1667 37.1907 15.1667 36.0002V20.0002C15.1667 18.8096 16.1429 17.8335 17.3334 17.8335H38.6667Z" fill="white" stroke="white"/>
</svg>
