<svg width="34" height="40" viewBox="0 0 34 40" fill="none" xmlns="http://www.w3.org/2000/svg">
<path d="M10.3372 39.2879C10.0751 38.985 9.40356 38.7704 9.06132 38.5679C8.10891 38.0052 7.18594 37.3942 6.29604 36.7371C4.60692 35.4891 3.29988 34.1298 2.38164 32.2059C0.878278 29.0552 0.195239 25.3899 0.858599 21.9435C1.77876 17.1589 5.45892 13.7082 7.4826 12.512C9.50628 11.3159 14.2477 10.0736 14.984 8.96963C15.7204 7.86563 16.8239 6.11747 17.0543 5.10514C15.3517 5.42723 13.9256 5.51939 12.8677 5.10514C11.8098 4.69091 10.268 2.50594 11.8093 0.964665C13.3506 -0.576615 15.0757 0.136665 16.2253 0.734745C17.3749 1.33282 17.5597 2.09171 18.1348 2.09171C18.6464 2.09171 19.2008 1.52098 19.6228 1.28434C21.106 0.452025 23.1796 0.516345 24.8394 0.628665C27.08 0.781785 29.3768 1.23202 31.472 2.04802C31.8981 2.20831 32.3121 2.39887 32.7109 2.61827C32.8816 2.71306 33.046 2.81888 33.2029 2.93506C33.5149 3.17026 33.4021 3.5365 33.1655 3.7789C32.912 4.03858 32.5256 4.15234 32.1796 4.0189C31.9679 3.93634 31.7999 3.77459 31.6698 3.59218C31.6261 3.53074 31.3189 2.97251 31.3132 2.97586C30.4616 3.45107 29.5972 3.88018 28.8268 4.48691C27.8668 5.24387 25.5148 8.6173 25.0232 10.4389C24.5317 12.2605 24.248 15.5893 23.5717 16.88C22.8954 18.1707 22.6722 18.128 22.2018 18.5975C22.3098 18.4895 22.1658 17.7243 22.1538 17.576C22.1197 17.192 22.0861 16.8008 22.0266 16.4197C21.8912 15.5557 21.5212 14.7426 21.0431 14.0197C20.5991 13.3477 20.062 12.7434 19.5042 12.164C19.2469 11.8962 18.9935 11.6125 18.7079 11.3749C18.6402 11.3187 17.768 10.8219 17.7661 10.8498C17.6735 12.2154 17.6135 13.5987 17.1556 14.9053C16.6664 16.3016 15.8596 17.5707 14.938 18.7218C13.6588 20.3231 12.164 21.9935 10.5484 23.2616C8.83764 24.6056 7.50372 26.3783 6.897 28.4821C6.34774 30.4159 6.40234 32.4713 7.05348 34.3731C7.71444 36.3013 9.02532 37.7715 10.3372 39.2879Z" fill="white"/>
<path d="M26.5314 10.7486C26.9202 10.6377 27.3267 10.3392 27.6354 10.0896C28.0434 9.76029 28.2867 9.28653 28.5335 8.83485C28.7927 8.3601 29.0813 7.90194 29.3975 7.46301C30.0308 6.58313 30.7692 5.78393 31.5963 5.08317C31.7999 4.91085 32.313 4.40397 32.6331 4.53789C33.2927 4.81389 32.9168 5.95629 32.6331 6.23997C32.3495 6.52365 31.7917 6.60813 31.3467 6.60813C31.3467 7.12941 30.8331 7.94973 30.3191 8.46381C29.805 8.97789 28.2488 10.043 27.7122 10.3041C27.3302 10.4814 26.9355 10.63 26.5314 10.7486Z" fill="white"/>
<path d="M14.4724 39.9628C14.4724 39.9628 10.138 37.7851 9.86436 33.706C9.59076 29.627 10.9684 26.9889 13.7288 24.2284C16.4893 21.4679 17.0408 21.1003 17.6548 19.9651C18.2687 18.8299 19.28 16.3459 19.28 14.8127C20.384 16.4995 21.0896 19.0147 21.274 20.7647C21.4583 22.5148 21.6416 25.0891 18.6973 28.2791C15.753 31.4692 14.6989 33.0945 14.4733 34.9031C14.2477 36.7118 14.4724 39.9628 14.4724 39.9628Z" fill="#C2D4FF"/>
<path d="M17.2227 39.9628C17.2227 39.9628 16.3333 36.405 17.2227 34.4725C18.1121 32.54 21.3325 30.117 22.268 28.3842C23.2035 26.6514 24.6142 24.4736 24.1237 21.9282C25.3352 20.7167 26.1171 19.5666 26.3629 17.8482C26.6086 16.1298 26.7613 15.5173 26.7613 14.5972C27.4054 15.7938 29.2457 19.568 29.2457 23.552C29.2457 27.536 28.8469 31.1279 26.7017 34.0108C24.5566 36.8936 21.1817 38.7959 19.7086 39.2864C18.2355 39.777 17.2227 39.9628 17.2227 39.9628Z" fill="#C2D4FF"/>
<path d="M26.133 29.6567C26.3283 29.3207 26.229 28.8205 26.2069 28.4495C26.1767 27.947 26.1098 27.4475 26.0067 26.9548C25.6904 25.4461 24.991 24.1228 24.2211 22.8028L24.1251 21.9282C24.1251 21.9282 25.5651 20.4767 25.9875 19.293C26.4099 18.1093 26.7627 15.3801 26.7627 14.5977C27.177 15.4137 28.1672 17.7474 28.3467 18.3378C28.5262 18.9282 28.8699 20.4407 28.5286 22.5417C28.1874 24.6426 26.8534 28.4145 26.133 29.6567Z" fill="#8BADFF"/>
<path d="M13.0976 33.9512C13.0976 33.9512 13.0362 31.9419 13.7571 30.8072C14.4781 29.6725 15.9042 28.3381 17.1613 27.3877C18.4184 26.4373 19.3314 25.831 20.06 24.9493C20.7887 24.0675 21.1496 23.3849 21.2408 22.4053C21.332 21.4256 21.1962 19.8987 20.9715 19.0409C20.7469 18.1832 19.9218 15.3973 19.2469 14.7209C19.1922 15.6934 18.8888 17.1411 18.4866 18.1102C18.0843 19.0793 17.4191 20.5582 16.5666 21.4112C15.9426 22.0352 15.2965 22.6357 14.6639 23.2496C13.8728 24.0176 13.0419 24.7683 12.3291 25.6107C11.3005 26.827 10.461 28.2867 10.0525 29.8347C9.78879 30.8526 9.68084 31.9045 9.73234 32.9547C9.75586 33.4736 9.79378 33.9953 9.9085 34.5017C10.0448 35.1041 10.2383 35.3657 10.2383 35.4339C10.2392 35.431 11.5794 34.1965 13.0976 33.9512Z" fill="#8BADFF"/>
<path d="M17 38.506C17 38.506 17.192 36.6196 18.0968 35.1167C19.0016 33.6139 21.164 32.0649 21.7448 31.6814C22.3256 31.2979 23.1555 30.5001 23.7536 29.6567C23.4176 32.3563 23.2016 33.1079 22.6803 33.8438C22.159 34.5796 20.8563 35.362 21.1006 36.1286C21.345 36.8951 22.0064 37.5556 22.3779 37.9271C21.6282 38.3841 20.1099 39.1651 19.5368 39.3441C18.9637 39.5231 17.2227 39.9628 17.2227 39.9628L17 38.506Z" fill="#608EFF"/>
<path d="M14.3941 35.915C14.3203 35.2141 14.31 34.5081 14.3634 33.8054C14.4412 32.795 14.8127 31.8326 15.2869 30.9422C16.1221 29.373 17.4133 28.2542 18.6469 27.0196C19.4063 26.2602 19.9045 25.7466 20.242 25.2561C20.5794 24.7655 21.0969 23.7546 21.2677 23.4014C21.1276 24.0897 20.7671 25.2767 20.4628 25.8177C20.1585 26.3586 19.462 27.4017 19.1106 27.8044C18.7593 28.2071 17.3111 29.7902 16.8258 30.3998C16.3405 31.0094 15.2044 32.6049 14.9773 33.1598C14.7503 33.7146 14.3121 35.2415 14.3941 35.915Z" fill="#608EFF"/>
<path d="M23.864 2.88136C23.7301 2.95816 23.0091 3.39112 22.8824 4.2772C22.8699 4.36552 22.7518 5.30392 23.4498 5.90248C24.1621 6.51352 25.0962 6.23272 25.2738 6.17848C25.3861 6.14488 26.6782 5.73304 26.7843 4.58392C26.8573 3.7972 26.3336 3.11176 25.7187 2.80504C24.8178 2.35528 23.9475 2.83336 23.864 2.88136Z" fill="#1D1D1D"/>
<path d="M24.6911 3.8475C24.5276 3.88394 24.3782 3.96713 24.2611 4.08695C24.144 4.20677 24.0643 4.35806 24.0316 4.52238C23.9557 4.91358 24.1756 5.26878 24.4636 5.44254C24.7218 5.59998 25.1116 5.6571 25.4145 5.44254C25.7505 5.20254 25.8258 4.73598 25.6751 4.38414C25.5162 4.01934 25.1087 3.75966 24.6911 3.8475Z" fill="white"/>
</svg>
