<svg width="20" height="16" viewBox="0 0 20 16" fill="none" xmlns="http://www.w3.org/2000/svg">
<path d="M0.51 2.00042V2C0.51 1.89013 0.521812 1.78298 0.544221 1.67976L1.735 2.424L9.735 7.424L10 7.58962L10.265 7.424L18.265 2.424L19.4641 1.67458C19.4876 1.77946 19.5 1.88838 19.5 2V14C19.5 14.8239 18.8239 15.5 18 15.5H2C1.17621 15.5 0.500103 14.824 0.5 14.0002C0.5 14.0001 0.5 14.0001 0.5 14L0.51 2.00042ZM2 1.5H0.595209C0.800423 0.917967 1.35325 0.5 2 0.5H18C18.6488 0.5 19.2061 0.919375 19.4135 1.5H18H2ZM18 14.5H18.5V14V4V3.09788L17.735 3.576L10 8.41038L2.265 3.576L1.5 3.09788V4V14V14.5H2H18Z" fill="#1D1D1D" stroke="#1D1D1D"/>
</svg>
