<svg width="16" height="16" viewBox="0 0 16 16" fill="none" xmlns="http://www.w3.org/2000/svg">
<g clip-path="url(#clip0_2012_314)">
<path d="M4.943 13.894H5.443V13.394V6.169V5.669H4.943H3.98811C4.4182 5.62261 4.79616 5.4532 5.08196 5.17912C5.42061 4.85435 5.601 4.4095 5.601 3.934H5.60111L5.60089 3.92342C5.59089 3.45074 5.41524 3.00885 5.08029 2.68478C4.74442 2.35982 4.28242 2.186 3.759 2.186C3.23677 2.186 2.76922 2.35915 2.42821 2.68074C2.08627 3.0032 1.9 3.44899 1.9 3.934C1.9 4.84141 2.54628 5.56446 3.48892 5.669H2.542H2.042V6.169V13.394V13.894H2.542H4.943ZM8.651 13.894H9.151V13.394V9.359C9.151 9.14572 9.17031 9.01879 9.19272 8.96488L9.19275 8.9649L9.19501 8.95925C9.3203 8.64711 9.56999 8.395 9.963 8.395C10.2502 8.395 10.391 8.49298 10.4836 8.62887C10.5979 8.79676 10.679 9.08827 10.679 9.529V13.394V13.894H11.179H13.58H14.08V13.394V9.25C14.08 8.05406 13.7603 7.10599 13.1582 6.45266C12.5524 5.7953 11.7174 5.498 10.816 5.498C10.1135 5.498 9.57067 5.68428 9.151 5.95829V5.669H8.651H6.251H5.72839L5.75149 6.1911C5.76582 6.5149 5.76602 8.30299 5.76225 10.0347C5.76038 10.8951 5.75757 11.7343 5.75522 12.3586L5.75223 13.1092L5.75133 13.3181L5.75109 13.3729L5.75103 13.387L5.75101 13.3905L5.75101 13.3914L5.75101 13.3916L6.251 13.394L5.75101 13.3917L5.7487 13.894H6.251H8.651ZM0.5 1.146C0.5 0.800853 0.790285 0.5 1.175 0.5H14.825C15.2097 0.5 15.5 0.800853 15.5 1.146V14.854C15.5 15.1991 15.2097 15.5 14.825 15.5H1.175C0.790284 15.5 0.5 15.1991 0.5 14.854V1.146Z" fill="#1D1D1D" stroke="#1D1D1D"/>
</g>
<defs>
<clipPath id="clip0_2012_314">
<rect width="16" height="16" fill="white"/>
</clipPath>
</defs>
</svg>
