<svg width="56" height="56" viewBox="0 0 56 56" fill="none" xmlns="http://www.w3.org/2000/svg">
<rect width="56" height="56" rx="28" fill="#0040DD"/>
<g clip-path="url(#clip0_195_501)">
<path d="M23.9239 35.6922H24.4239V35.1922V25.5588V25.0588H23.9239H20.7226H20.2226V25.5588V35.1922V35.6922H20.7226H23.9239ZM24.6346 22.5788H24.6347L24.6345 22.5683C24.622 21.9774 24.403 21.4315 23.9911 21.033C23.5783 20.6336 23.0057 20.4148 22.3453 20.4148C21.686 20.4148 21.1052 20.633 20.6852 21.0291C20.2643 21.426 20.0333 21.9758 20.0333 22.5788C20.0333 23.7921 20.9637 24.7428 22.3026 24.7428H22.3239C22.9949 24.7428 23.5766 24.5188 23.9938 24.1187C24.4108 23.7188 24.6346 23.17 24.6346 22.5788ZM28.8679 35.6922H29.3679V35.1922V29.8122C29.3679 29.5269 29.3926 29.328 29.4363 29.2227L29.4363 29.2227L29.4386 29.2171C29.6216 28.7613 30.0029 28.3602 30.6173 28.3602C31.0492 28.3602 31.2915 28.5133 31.4491 28.7449C31.6285 29.0084 31.7386 29.4361 31.7386 30.0388V35.1922V35.6922H32.2386H35.4399H35.9399V35.1922V29.6668C35.9399 28.1009 35.5215 26.8818 34.7549 26.05C33.9846 25.2141 32.9193 24.8308 31.7546 24.8308C30.806 24.8308 30.0913 25.0938 29.5498 25.4685C29.4865 25.5123 29.4259 25.5574 29.3679 25.6034V25.5588V25.0588H28.8679H25.6679H25.1453L25.1684 25.5809C25.1877 26.0177 25.1879 28.4079 25.1829 30.7134C25.1804 31.8607 25.1767 32.9799 25.1735 33.8122L25.1696 34.8132L25.1684 35.0917L25.168 35.1648L25.168 35.1836L25.1679 35.1883L25.1679 35.1895L25.1679 35.1898L25.6679 35.1922L25.1679 35.1899L25.1656 35.6922H25.6679H28.8679ZM17.8333 18.8615C17.8333 18.3053 18.2989 17.8335 18.8999 17.8335H37.0999C37.701 17.8335 38.1666 18.3053 38.1666 18.8615V37.1388C38.1666 37.695 37.701 38.1668 37.0999 38.1668H18.8999C18.2989 38.1668 17.8333 37.695 17.8333 37.1388V18.8615Z" fill="white" stroke="white"/>
</g>
<defs>
<clipPath id="clip0_195_501">
<rect width="21.3333" height="21.3333" fill="white" transform="translate(17.3333 17.3335)"/>
</clipPath>
</defs>
</svg>
