<svg width="40" height="40" viewBox="0 0 40 40" fill="none" xmlns="http://www.w3.org/2000/svg">
<rect width="40" height="40" rx="20" fill="#0040DD"/>
<g clip-path="url(#clip0_509_683)">
<path d="M16.943 25.894H17.443V25.394V18.169V17.669H16.943H15.9881C16.4182 17.6226 16.7962 17.4532 17.082 17.1791C17.4206 16.8543 17.601 16.4095 17.601 15.934H17.6011L17.6009 15.9234C17.5909 15.4507 17.4152 15.0088 17.0803 14.6848C16.7444 14.3598 16.2824 14.186 15.759 14.186C15.2368 14.186 14.7692 14.3592 14.4282 14.6807C14.0863 15.0032 13.9 15.449 13.9 15.934C13.9 16.8414 14.5463 17.5645 15.4889 17.669H14.542H14.042V18.169V25.394V25.894H14.542H16.943ZM20.651 25.894H21.151V25.394V21.359C21.151 21.1457 21.1703 21.0188 21.1927 20.9649L21.1927 20.9649L21.195 20.9593C21.3203 20.6471 21.57 20.395 21.963 20.395C22.2502 20.395 22.391 20.493 22.4836 20.6289C22.5979 20.7968 22.679 21.0883 22.679 21.529V25.394V25.894H23.179H25.58H26.08V25.394V21.25C26.08 20.0541 25.7603 19.106 25.1582 18.4527C24.5524 17.7953 23.7174 17.498 22.816 17.498C22.1135 17.498 21.5707 17.6843 21.151 17.9583V17.669H20.651H18.251H17.7284L17.7515 18.1911C17.7658 18.5149 17.766 20.303 17.7623 22.0347C17.7604 22.8951 17.7576 23.7343 17.7552 24.3586L17.7522 25.1092L17.7513 25.3181L17.7511 25.3729L17.751 25.387L17.751 25.3905L17.751 25.3914L17.751 25.3916L18.251 25.394L17.751 25.3917L17.7487 25.894H18.251H20.651ZM12.5 13.146C12.5 12.8009 12.7903 12.5 13.175 12.5H26.825C27.2097 12.5 27.5 12.8009 27.5 13.146V26.854C27.5 27.1991 27.2097 27.5 26.825 27.5H13.175C12.7903 27.5 12.5 27.1991 12.5 26.854V13.146Z" fill="white" stroke="white"/>
</g>
<defs>
<clipPath id="clip0_509_683">
<rect width="16" height="16" fill="white" transform="translate(12 12)"/>
</clipPath>
</defs>
</svg>
