<svg width="40" height="40" viewBox="0 0 40 40" fill="none" xmlns="http://www.w3.org/2000/svg">
<rect width="40" height="40" rx="20" fill="#0040DD"/>
<path d="M10.51 14.0004V14C10.51 13.8901 10.5218 13.783 10.5442 13.6798L11.735 14.424L19.735 19.424L20 19.5896L20.265 19.424L28.265 14.424L29.4641 13.6746C29.4876 13.7795 29.5 13.8884 29.5 14V26C29.5 26.8239 28.8239 27.5 28 27.5H12C11.1762 27.5 10.5001 26.824 10.5 26.0002C10.5 26.0001 10.5 26.0001 10.5 26L10.51 14.0004ZM12 13.5H10.5952C10.8004 12.918 11.3533 12.5 12 12.5H28C28.6488 12.5 29.2061 12.9194 29.4135 13.5H28H12ZM28 26.5H28.5V26V16V15.0979L27.735 15.576L20 20.4104L12.265 15.576L11.5 15.0979V16V26V26.5H12H28Z" fill="white" stroke="white"/>
</svg>
