<svg width="40" height="40" viewBox="0 0 40 40" fill="none" xmlns="http://www.w3.org/2000/svg">
<rect width="40" height="40" rx="20" fill="#0040DD"/>
<path d="M15.0389 12.9664L15.0074 12.5H14.54H13.03H12.4947L12.5312 13.034C12.6241 14.3977 12.8928 15.7106 13.3169 16.9517L13.5762 17.7109L14.1436 17.1436L15.3436 15.9436L15.5523 15.7348L15.4703 15.4511C15.2407 14.6571 15.0966 13.8225 15.0389 12.9664ZM24.5359 24.5388L24.2551 24.4595L24.0479 24.665L22.8479 25.855L22.2692 26.4289L23.0431 26.6847C24.291 27.0973 25.6022 27.3659 26.966 27.4588L27.5 27.4953V26.96V25.47V25.0029L27.034 24.9712C26.1882 24.9135 25.3523 24.7694 24.5359 24.5388ZM24.2443 23.4042L24.2586 23.4099L24.2732 23.4148C25.4436 23.8014 26.7066 24.01 28 24.01C28.2739 24.01 28.5 24.2361 28.5 24.51V28C28.5 28.2739 28.2739 28.5 28 28.5C18.8861 28.5 11.5 21.1139 11.5 12C11.5 11.7261 11.7261 11.5 12 11.5H15.5C15.7739 11.5 16 11.7261 16 12C16 13.3021 16.2081 14.5537 16.5939 15.7228C16.6492 15.9022 16.6082 16.0947 16.4664 16.2364L14.2664 18.4364L14.0097 18.6932L14.1744 19.0168C15.6627 21.9418 18.0595 24.3276 20.982 25.825L21.3061 25.991L21.5636 25.7336L23.7584 23.5387C23.8677 23.4366 23.994 23.39 24.12 23.39C24.1541 23.39 24.1818 23.3918 24.2043 23.395C24.2268 23.3982 24.2392 23.4022 24.2443 23.4042Z" fill="white" stroke="white"/>
</svg>
