<svg width="40" height="40" viewBox="0 0 40 40" fill="none" xmlns="http://www.w3.org/2000/svg">
<rect width="40" height="40" rx="20" fill="#0040DD"/>
<path d="M29.9923 12.6928L29.9923 12.6928L29.9917 12.7011C29.967 13.0475 29.8407 13.8509 29.6666 14.9588L29.6592 15.0059C29.4841 16.1204 29.2676 17.5038 29.078 18.9427L27.7837 27.4326L27.7812 27.4486L27.78 27.4623L27.78 27.4627L27.7799 27.4635L27.7799 27.4641L27.7796 27.4663C27.7791 27.4711 27.778 27.4799 27.7763 27.4922C27.7728 27.5169 27.7667 27.5551 27.7567 27.6027C27.7363 27.6994 27.7015 27.827 27.6447 27.9563C27.5279 28.2225 27.3554 28.4216 27.09 28.4808C26.7792 28.5501 26.3062 28.4293 25.7988 28.1915C25.3157 27.965 24.9177 27.6885 24.8134 27.6049L24.8073 27.6L24.801 27.5953C24.7424 27.5512 24.5236 27.4076 24.2261 27.2125C24.1641 27.1718 24.0986 27.1288 24.0305 27.0841C23.6204 26.8148 23.0811 26.4593 22.5069 26.0721C21.3481 25.2907 20.081 24.4024 19.4351 23.8325L19.4351 23.8324L19.4302 23.8282C19.2796 23.6988 19.1799 23.5531 19.1597 23.4256C19.1465 23.3427 19.1468 23.1512 19.488 22.8518L19.4959 22.8448L19.5036 22.8376L25.1697 17.4269L25.1698 17.427L25.1784 17.4183C25.3738 17.2224 25.5652 16.9667 25.6985 16.718C25.765 16.5938 25.8259 16.4549 25.8614 16.3139C25.8934 16.1864 25.9236 15.9834 25.84 15.7796C25.736 15.5264 25.5119 15.3962 25.284 15.3676C25.0897 15.3432 24.8888 15.3884 24.7067 15.4513C24.3332 15.5802 23.8232 15.8615 23.1399 16.3273C23.1398 16.3274 23.1397 16.3274 23.1396 16.3275L15.6013 21.4565C15.5999 21.4572 15.5984 21.4581 15.5966 21.459C15.5827 21.4661 15.5566 21.4789 15.5183 21.4944C15.4419 21.5254 15.317 21.5676 15.1449 21.5982C14.8038 21.6589 14.2631 21.6768 13.53 21.4566C13.5294 21.4564 13.5289 21.4563 13.5283 21.4561L10.1056 20.4001C10.0933 20.3897 10.0798 20.3774 10.0663 20.3636C10.0428 20.3396 10.0246 20.3164 10.0127 20.2964C10.0055 20.2845 10.0023 20.2765 10.0008 20.2723C10.006 20.2578 10.0228 20.2273 10.0714 20.1786C10.1869 20.0628 10.4428 19.8909 10.9663 19.6989L10.9871 19.6913L11.0072 19.6818C15.0744 17.7651 19.8461 15.8187 24.4795 13.9287C25.9746 13.3188 27.4553 12.7149 28.8933 12.1196L28.9005 12.117C28.9102 12.1135 28.926 12.108 28.947 12.1012C28.9893 12.0875 29.0511 12.069 29.1252 12.0516C29.2794 12.0153 29.459 11.99 29.6173 12.0038C29.7747 12.0175 29.8556 12.0636 29.8993 12.1151C29.942 12.1653 30.0259 12.3111 29.9923 12.6928ZM9.99912 20.2823C9.99856 20.2824 9.99841 20.2796 10.0003 20.2737C10.0006 20.2793 9.99968 20.2823 9.99912 20.2823Z" fill="white" stroke="white"/>
</svg>
