<svg width="40" height="40" viewBox="0 0 40 40" fill="none" xmlns="http://www.w3.org/2000/svg">
<rect width="40" height="40" rx="20" fill="#0040DD"/>
<path d="M17.5 23V23.8665L18.2502 23.4329L23.4402 20.4329L24.1891 20L23.4402 19.5671L18.2502 16.5671L17.5 16.1335V17V23ZM29.3414 17.1074L29.3414 17.1074L29.3419 17.1136C29.4108 17.9012 29.44 18.5765 29.44 19.16V19.1778L29.4413 19.1956L29.5 20.0178C29.4991 22.1841 29.3393 23.735 29.0778 24.6977C28.8746 25.4277 28.4269 25.8751 27.6967 26.0781C27.2889 26.1909 26.4834 26.2802 25.1573 26.3405L25.1573 26.3405L25.1531 26.3407C23.8619 26.4103 22.6808 26.44 21.59 26.44H21.5806L21.5711 26.4404L19.9906 26.5C17.9051 26.4999 16.2187 26.46 14.9287 26.3858C13.6254 26.3109 12.7625 26.2027 12.3026 26.0779C11.5723 25.8747 11.1248 25.4269 10.9218 24.6964C10.8047 24.2728 10.7177 23.6806 10.6586 22.8926L10.6586 22.8926L10.6581 22.8864C10.5892 22.0988 10.56 21.4235 10.56 20.84V20.8222L10.5587 20.8044L10.5 19.9822C10.5009 17.8161 10.6607 16.2653 10.9221 15.3025C11.1253 14.5723 11.5731 14.1248 12.3036 13.9218C12.7115 13.8091 13.5169 13.7197 14.8427 13.6595L14.8427 13.6595L14.8469 13.6593C16.1381 13.5897 17.3192 13.56 18.41 13.56H18.4194L18.4289 13.5596L20.0094 13.5C22.0949 13.5001 23.7813 13.54 25.0713 13.6142C26.3746 13.6891 27.2376 13.7973 27.6975 13.9221C28.4277 14.1254 28.8752 14.5731 29.0782 15.3035C29.1953 15.7271 29.2823 16.3193 29.3414 17.1074Z" fill="white" stroke="white"/>
</svg>
