<svg width="169" height="48" viewBox="0 0 169 48" fill="none" xmlns="http://www.w3.org/2000/svg">
<path d="M17.3372 43.2878C17.0751 42.985 16.4036 42.7704 16.0613 42.5678C15.1089 42.0052 14.1859 41.3942 13.296 40.7371C11.6069 39.4891 10.2999 38.1298 9.38164 36.2059C7.87828 33.0552 7.19524 29.3899 7.8586 25.9435C8.77876 21.1589 12.4589 17.7082 14.4826 16.512C16.5063 15.3158 21.2477 14.0736 21.984 12.9696C22.7204 11.8656 23.8239 10.1174 24.0543 9.10511C22.3517 9.42719 20.9256 9.51935 19.8677 9.10511C18.8098 8.69087 17.268 6.50591 18.8093 4.96463C20.3506 3.42335 22.0757 4.13663 23.2253 4.73471C24.3749 5.33279 24.5597 6.09167 25.1348 6.09167C25.6464 6.09167 26.2008 5.52095 26.6228 5.28431C28.106 4.45199 30.1796 4.51631 31.8394 4.62863C34.08 4.78175 36.3768 5.23199 38.472 6.04799C38.8981 6.20827 39.3121 6.39884 39.7109 6.61823C39.8816 6.71303 40.046 6.81885 40.2029 6.93503C40.5149 7.17023 40.4021 7.53647 40.1655 7.77887C39.912 8.03855 39.5256 8.15231 39.1796 8.01887C38.9679 7.93631 38.7999 7.77455 38.6698 7.59215C38.6261 7.53071 38.3189 6.97247 38.3132 6.97583C37.4616 7.45103 36.5972 7.88015 35.8268 8.48687C34.8668 9.24383 32.5148 12.6173 32.0232 14.4389C31.5317 16.2605 31.248 19.5893 30.5717 20.88C29.8954 22.1707 29.6722 22.128 29.2018 22.5974C29.3098 22.4894 29.1658 21.7243 29.1538 21.576C29.1197 21.192 29.0861 20.8008 29.0266 20.4197C28.8912 19.5557 28.5212 18.7426 28.0431 18.0197C27.5991 17.3477 27.062 16.7434 26.5042 16.164C26.2469 15.8962 25.9935 15.6125 25.7079 15.3749C25.6402 15.3187 24.768 14.8219 24.7661 14.8498C24.6735 16.2154 24.6135 17.5987 24.1556 18.9053C23.6664 20.3016 22.8596 21.5707 21.938 22.7218C20.6588 24.323 19.164 25.9934 17.5484 27.2616C15.8376 28.6056 14.5037 30.3782 13.897 32.4821C13.3477 34.4158 13.4023 36.4712 14.0535 38.3731C14.7144 40.3013 16.0253 41.7715 17.3372 43.2878Z" fill="#608EFF"/>
<path d="M33.5314 14.7485C33.9202 14.6376 34.3267 14.339 34.6354 14.0894C35.0434 13.7602 35.2867 13.2864 35.5335 12.8347C35.7927 12.36 36.0813 11.9018 36.3975 11.4629C37.0308 10.583 37.7692 9.78381 38.5963 9.08305C38.7999 8.91073 39.313 8.40385 39.6331 8.53777C40.2927 8.81377 39.9168 9.95617 39.6331 10.2398C39.3495 10.5235 38.7917 10.608 38.3467 10.608C38.3467 11.1293 37.8331 11.9496 37.3191 12.4637C36.805 12.9778 35.2488 14.0429 34.7122 14.304C34.3302 14.4813 33.9355 14.6299 33.5314 14.7485Z" fill="#608EFF"/>
<path d="M21.4724 43.9627C21.4724 43.9627 17.138 41.7849 16.8644 37.7059C16.5908 33.6269 17.9684 30.9888 20.7288 28.2283C23.4893 25.4678 24.0408 25.1001 24.6548 23.9649C25.2687 22.8297 26.28 20.3457 26.28 18.8126C27.384 20.4993 28.0896 23.0145 28.274 24.7646C28.4583 26.5147 28.6416 29.0889 25.6973 32.279C22.753 35.4691 21.6989 37.0944 21.4733 38.903C21.2477 40.7117 21.4724 43.9627 21.4724 43.9627Z" fill="#608EFF"/>
<path d="M24.2227 43.9627C24.2227 43.9627 23.3333 40.4049 24.2227 38.4725C25.1121 36.54 28.3325 34.1169 29.268 32.3841C30.2035 30.6513 31.6142 28.4736 31.1237 25.9281C32.3352 24.7166 33.1171 23.5665 33.3629 21.8481C33.6086 20.1297 33.7613 19.5173 33.7613 18.5971C34.4054 19.7937 36.2457 23.568 36.2457 27.552C36.2457 31.536 35.8469 35.1278 33.7017 38.0107C31.5566 40.8936 28.1817 42.7958 26.7086 43.2864C25.2355 43.7769 24.2227 43.9627 24.2227 43.9627Z" fill="#608EFF"/>
<path d="M33.133 33.6566C33.3283 33.3206 33.229 32.8205 33.2069 32.4494C33.1767 31.947 33.1098 31.4474 33.0067 30.9547C32.6904 29.4461 31.991 28.1227 31.2211 26.8027L31.1251 25.9282C31.1251 25.9282 32.5651 24.4766 32.9875 23.293C33.4099 22.1093 33.7627 19.38 33.7627 18.5976C34.177 19.4136 35.1672 21.7474 35.3467 22.3378C35.5262 22.9282 35.8699 24.4406 35.5286 26.5416C35.1874 28.6426 33.8534 32.4144 33.133 33.6566Z" fill="#0040DD"/>
<path d="M20.0976 37.9512C20.0976 37.9512 20.0362 35.9419 20.7571 34.8072C21.4781 33.6725 22.9042 32.3381 24.1613 31.3877C25.4184 30.4373 26.3314 29.831 27.06 28.9493C27.7887 28.0675 28.1496 27.3849 28.2408 26.4053C28.332 25.4256 28.1962 23.8987 27.9715 23.0409C27.7469 22.1832 26.9218 19.3973 26.2469 18.7209C26.1922 19.6934 25.8888 21.1411 25.4866 22.1102C25.0843 23.0793 24.4191 24.5582 23.5666 25.4112C22.9426 26.0352 22.2965 26.6357 21.6639 27.2496C20.8728 28.0176 20.0419 28.7683 19.3291 29.6107C18.3005 30.827 17.461 32.2867 17.0525 33.8347C16.7888 34.8526 16.6808 35.9045 16.7323 36.9547C16.7559 37.4736 16.7938 37.9953 16.9085 38.5017C17.0448 39.1041 17.2383 39.3657 17.2383 39.4339C17.2392 39.431 18.5794 38.1965 20.0976 37.9512Z" fill="#0040DD"/>
<path d="M24 42.5059C24 42.5059 24.192 40.6195 25.0968 39.1166C26.0016 37.6138 28.164 36.0648 28.7448 35.6813C29.3256 35.2978 30.1555 34.5 30.7536 33.6566C30.4176 36.3562 30.2016 37.1078 29.6803 37.8437C29.159 38.5795 27.8563 39.3619 28.1006 40.1285C28.345 40.895 29.0064 41.5555 29.3779 41.927C28.6282 42.384 27.1099 43.165 26.5368 43.344C25.9637 43.523 24.2227 43.9627 24.2227 43.9627L24 42.5059Z" fill="#022F9D"/>
<path d="M21.3941 39.9149C21.3203 39.214 21.31 38.508 21.3634 37.8053C21.4412 36.7949 21.8127 35.8325 22.2869 34.9421C23.1221 33.373 24.4133 32.2541 25.6469 31.0195C26.4063 30.2602 26.9045 29.7466 27.242 29.256C27.5794 28.7654 28.0969 27.7546 28.2677 27.4013C28.1276 28.0896 27.7671 29.2766 27.4628 29.8176C27.1585 30.3586 26.462 31.4016 26.1106 31.8043C25.7592 32.207 24.3111 33.7901 23.8258 34.3997C23.3405 35.0093 22.2044 36.6048 21.9773 37.1597C21.7503 37.7146 21.3121 39.2414 21.3941 39.9149Z" fill="#022F9D"/>
<path d="M30.864 6.88127C30.7301 6.95807 30.0091 7.39103 29.8824 8.27711C29.8699 8.36543 29.7518 9.30383 30.4498 9.90239C31.1621 10.5134 32.0962 10.2326 32.2738 10.1784C32.3861 10.1448 33.6782 9.73295 33.7843 8.58383C33.8573 7.79711 33.3336 7.11167 32.7187 6.80495C31.8178 6.35519 30.9475 6.83327 30.864 6.88127Z" fill="#1D1D1D"/>
<path d="M31.6911 7.8475C31.5276 7.88394 31.3782 7.96713 31.2611 8.08695C31.144 8.20677 31.0643 8.35806 31.0316 8.52238C30.9557 8.91358 31.1756 9.26878 31.4636 9.44254C31.7218 9.59998 32.1116 9.6571 32.4145 9.44254C32.7505 9.20254 32.8258 8.73598 32.6751 8.38414C32.5162 8.01934 32.1087 7.75966 31.6911 7.8475Z" fill="#608EFF"/>
<path d="M64.768 13.6C67.968 13.6 70.4107 14.1867 72.096 15.36C73.8027 16.5333 74.656 18.3253 74.656 20.736C74.656 23.744 73.1733 25.7813 70.208 26.848C70.6133 27.3387 71.072 27.936 71.584 28.64C72.096 29.344 72.6187 30.112 73.152 30.944C73.6853 31.7547 74.1973 32.5973 74.688 33.472C75.1787 34.3253 75.616 35.168 76 36H71.488C71.0827 35.232 70.6453 34.464 70.176 33.696C69.7067 32.9067 69.2267 32.1493 68.736 31.424C68.2667 30.6773 67.7973 29.984 67.328 29.344C66.8587 28.6827 66.4213 28.096 66.016 27.584C65.7173 27.6053 65.4613 27.616 65.248 27.616C65.0347 27.616 64.832 27.616 64.64 27.616H62.688V36H58.656V14.144C59.6373 13.9307 60.6827 13.792 61.792 13.728C62.9013 13.6427 63.8933 13.6 64.768 13.6ZM65.056 17.088C64.2027 17.088 63.4133 17.12 62.688 17.184V24.352H64.448C65.4293 24.352 66.2933 24.2987 67.04 24.192C67.7867 24.0853 68.4053 23.8933 68.896 23.616C69.408 23.3387 69.792 22.9653 70.048 22.496C70.304 22.0267 70.432 21.4293 70.432 20.704C70.432 20.0213 70.304 19.4453 70.048 18.976C69.792 18.5067 69.4187 18.1333 68.928 17.856C68.4587 17.5787 67.8933 17.3867 67.232 17.28C66.5707 17.152 65.8453 17.088 65.056 17.088ZM84.8208 33.28C86.0154 33.28 86.9221 33.216 87.5408 33.088V28.8C87.3274 28.736 87.0181 28.672 86.6128 28.608C86.2074 28.544 85.7594 28.512 85.2688 28.512C84.8421 28.512 84.4048 28.544 83.9568 28.608C83.5301 28.672 83.1354 28.7893 82.7728 28.96C82.4314 29.1307 82.1541 29.376 81.9408 29.696C81.7274 29.9947 81.6208 30.3787 81.6208 30.848C81.6208 31.7653 81.9088 32.4053 82.4848 32.768C83.0608 33.1093 83.8394 33.28 84.8208 33.28ZM84.5008 18.848C85.7808 18.848 86.8581 19.008 87.7328 19.328C88.6074 19.648 89.3008 20.096 89.8128 20.672C90.3461 21.248 90.7194 21.952 90.9328 22.784C91.1674 23.5947 91.2848 24.4907 91.2848 25.472V35.616C90.6874 35.744 89.7808 35.8933 88.5648 36.064C87.3701 36.256 86.0154 36.352 84.5008 36.352C83.4981 36.352 82.5808 36.256 81.7488 36.064C80.9168 35.872 80.2021 35.5627 79.6048 35.136C79.0288 34.7093 78.5701 34.1547 78.2288 33.472C77.9088 32.7893 77.7488 31.9467 77.7488 30.944C77.7488 29.984 77.9301 29.1733 78.2928 28.512C78.6768 27.8507 79.1888 27.3173 79.8288 26.912C80.4688 26.4853 81.2048 26.1867 82.0368 26.016C82.8901 25.824 83.7754 25.728 84.6927 25.728C85.1194 25.728 85.5674 25.76 86.0368 25.824C86.5061 25.8667 87.0074 25.952 87.5408 26.08V25.44C87.5408 24.992 87.4874 24.5653 87.3808 24.16C87.2741 23.7547 87.0821 23.4027 86.8048 23.104C86.5488 22.784 86.1968 22.5387 85.7488 22.368C85.3221 22.1973 84.7781 22.112 84.1168 22.112C83.2208 22.112 82.3994 22.176 81.6528 22.304C80.9061 22.432 80.2981 22.5813 79.8288 22.752L79.3488 19.616C79.8394 19.4453 80.5541 19.2747 81.4928 19.104C82.4314 18.9333 83.4341 18.848 84.5008 18.848ZM95.8345 14.848L99.7065 14.208V19.264H105.659V22.496H99.7065V29.312C99.7065 30.656 99.9198 31.616 100.347 32.192C100.773 32.768 101.499 33.056 102.523 33.056C103.227 33.056 103.845 32.9813 104.379 32.832C104.933 32.6827 105.371 32.544 105.691 32.416L106.331 35.488C105.883 35.68 105.296 35.872 104.571 36.064C103.845 36.2773 102.992 36.384 102.01 36.384C100.816 36.384 99.8132 36.224 99.0025 35.904C98.2132 35.584 97.5838 35.1253 97.1145 34.528C96.6452 33.9093 96.3145 33.1733 96.1225 32.32C95.9305 31.4453 95.8345 30.4533 95.8345 29.344V14.848ZM113.306 36H109.434V19.264H113.306V36ZM113.722 14.368C113.722 15.0933 113.487 15.6693 113.018 16.096C112.548 16.5227 111.994 16.736 111.354 16.736C110.692 16.736 110.127 16.5227 109.658 16.096C109.188 15.6693 108.954 15.0933 108.954 14.368C108.954 13.6213 109.188 13.0347 109.658 12.608C110.127 12.1813 110.692 11.968 111.354 11.968C111.994 11.968 112.548 12.1813 113.018 12.608C113.487 13.0347 113.722 13.6213 113.722 14.368ZM135.045 36H131.173V19.264H135.045V36ZM135.493 14.368C135.493 15.0933 135.259 15.6693 134.789 16.096C134.32 16.5227 133.765 16.736 133.125 16.736C132.464 16.736 131.899 16.5227 131.429 16.096C130.96 15.6693 130.725 15.0933 130.725 14.368C130.725 13.6213 130.96 13.0347 131.429 12.608C131.899 12.1813 132.464 11.968 133.125 11.968C133.765 11.968 134.32 12.1813 134.789 12.608C135.259 13.0347 135.493 13.6213 135.493 14.368ZM125.125 11.168C125.936 11.168 126.619 11.232 127.173 11.36C127.749 11.488 128.197 11.616 128.517 11.744L127.909 14.88C127.611 14.7733 127.248 14.6773 126.821 14.592C126.416 14.5067 125.968 14.464 125.477 14.464C124.197 14.464 123.312 14.8053 122.821 15.488C122.352 16.1707 122.117 17.056 122.117 18.144V19.264H128.261V22.496H122.117V36H118.245V18.08C118.245 15.904 118.811 14.208 119.941 12.992C121.072 11.776 122.8 11.168 125.125 11.168ZM149.531 22.752C149.211 22.6453 148.763 22.5387 148.187 22.432C147.633 22.304 146.982 22.24 146.235 22.24C145.809 22.24 145.35 22.2827 144.859 22.368C144.39 22.4533 144.059 22.528 143.867 22.592V36H139.995V20.064C140.742 19.7867 141.67 19.5307 142.779 19.296C143.91 19.04 145.158 18.912 146.523 18.912C146.779 18.912 147.078 18.9333 147.419 18.976C147.761 18.9973 148.102 19.04 148.443 19.104C148.785 19.1467 149.115 19.2107 149.435 19.296C149.755 19.36 150.011 19.424 150.203 19.488L149.531 22.752ZM151.974 27.712C151.974 26.24 152.187 24.9493 152.614 23.84C153.062 22.7307 153.648 21.8133 154.374 21.088C155.099 20.3413 155.931 19.7867 156.87 19.424C157.808 19.04 158.768 18.848 159.75 18.848C162.054 18.848 163.846 19.5627 165.126 20.992C166.427 22.4213 167.078 24.5547 167.078 27.392C167.078 27.6053 167.067 27.8507 167.046 28.128C167.046 28.384 167.035 28.6187 167.014 28.832H155.974C156.08 30.176 156.55 31.2213 157.382 31.968C158.235 32.6933 159.462 33.056 161.062 33.056C162 33.056 162.854 32.9707 163.622 32.8C164.411 32.6293 165.03 32.448 165.478 32.256L165.99 35.424C165.776 35.5307 165.478 35.648 165.094 35.776C164.731 35.8827 164.304 35.9787 163.814 36.064C163.344 36.1707 162.832 36.256 162.278 36.32C161.723 36.384 161.158 36.416 160.582 36.416C159.11 36.416 157.83 36.2027 156.742 35.776C155.654 35.328 154.758 34.72 154.054 33.952C153.35 33.1627 152.827 32.2453 152.486 31.2C152.144 30.1333 151.974 28.9707 151.974 27.712ZM163.206 25.984C163.206 25.4507 163.131 24.9493 162.982 24.48C162.832 23.9893 162.608 23.5733 162.31 23.232C162.032 22.8693 161.68 22.592 161.254 22.4C160.848 22.1867 160.358 22.08 159.782 22.08C159.184 22.08 158.662 22.1973 158.214 22.432C157.766 22.6453 157.382 22.9333 157.062 23.296C156.763 23.6587 156.528 24.0747 156.358 24.544C156.187 25.0133 156.07 25.4933 156.006 25.984H163.206Z" fill="#608EFF"/>
</svg>
