<svg width="48" height="48" viewBox="0 0 48 48" fill="none" xmlns="http://www.w3.org/2000/svg">
<path d="M17.3371 43.2878C17.075 42.985 16.4035 42.7704 16.0613 42.5678C15.1088 42.0052 14.1859 41.3942 13.296 40.7371C11.6069 39.4891 10.2998 38.1298 9.38158 36.2059C7.87822 33.0552 7.19518 29.3899 7.85854 25.9435C8.7787 21.1589 12.4589 17.7082 14.4825 16.512C16.5062 15.3158 21.2477 14.0736 21.984 12.9696C22.7203 11.8656 23.8238 10.1174 24.0542 9.10511C22.3517 9.42719 20.9256 9.51935 19.8677 9.10511C18.8097 8.69087 17.268 6.50591 18.8093 4.96463C20.3505 3.42335 22.0757 4.13663 23.2253 4.73471C24.3749 5.33279 24.5597 6.09167 25.1347 6.09167C25.6464 6.09167 26.2008 5.52095 26.6227 5.28431C28.1059 4.45199 30.1795 4.51631 31.8393 4.62863C34.08 4.78175 36.3768 5.23199 38.472 6.04799C38.898 6.20827 39.312 6.39884 39.7109 6.61823C39.8816 6.71303 40.0459 6.81885 40.2029 6.93503C40.5149 7.17023 40.4021 7.53647 40.1654 7.77887C39.912 8.03855 39.5256 8.15231 39.1795 8.01887C38.9678 7.93631 38.7998 7.77455 38.6697 7.59215C38.6261 7.53071 38.3189 6.97247 38.3131 6.97583C37.4616 7.45103 36.5971 7.88015 35.8267 8.48687C34.8667 9.24383 32.5147 12.6173 32.0232 14.4389C31.5317 16.2605 31.248 19.5893 30.5717 20.88C29.8953 22.1707 29.6721 22.128 29.2017 22.5974C29.3097 22.4894 29.1657 21.7243 29.1537 21.576C29.1197 21.192 29.0861 20.8008 29.0265 20.4197C28.8912 19.5557 28.5211 18.7426 28.043 18.0197C27.599 17.3477 27.0619 16.7434 26.5041 16.164C26.2469 15.8962 25.9934 15.6125 25.7078 15.3749C25.6401 15.3187 24.768 14.8219 24.7661 14.8498C24.6734 16.2154 24.6134 17.5987 24.1555 18.9053C23.6664 20.3016 22.8595 21.5707 21.9379 22.7218C20.6587 24.323 19.164 25.9934 17.5483 27.2616C15.8376 28.6056 14.5037 30.3782 13.8969 32.4821C13.3477 34.4158 13.4023 36.4712 14.0534 38.3731C14.7144 40.3013 16.0253 41.7715 17.3371 43.2878Z" fill="#608EFF"/>
<path d="M33.5313 14.7485C33.9201 14.6376 34.3267 14.339 34.6353 14.0894C35.0433 13.7602 35.2867 13.2864 35.5334 12.8347C35.7927 12.36 36.0812 11.9018 36.3974 11.4629C37.0307 10.583 37.7691 9.78381 38.5963 9.08305C38.7998 8.91073 39.3129 8.40385 39.6331 8.53777C40.2926 8.81377 39.9168 9.95617 39.6331 10.2398C39.3494 10.5235 38.7916 10.608 38.3467 10.608C38.3467 11.1293 37.8331 11.9496 37.319 12.4637C36.8049 12.9778 35.2487 14.0429 34.7121 14.304C34.3301 14.4813 33.9354 14.6299 33.5313 14.7485Z" fill="#608EFF"/>
<path d="M21.4723 43.9627C21.4723 43.9627 17.1379 41.7849 16.8643 37.7059C16.5907 33.6269 17.9683 30.9888 20.7288 28.2283C23.4893 25.4678 24.0408 25.1001 24.6547 23.9649C25.2686 22.8297 26.28 20.3457 26.28 18.8126C27.384 20.4993 28.0896 23.0145 28.2739 24.7646C28.4582 26.5147 28.6416 29.0889 25.6973 32.279C22.7529 35.4691 21.6989 37.0944 21.4733 38.903C21.2477 40.7117 21.4723 43.9627 21.4723 43.9627Z" fill="#608EFF"/>
<path d="M24.2227 43.9627C24.2227 43.9627 23.3333 40.4049 24.2227 38.4725C25.1121 36.54 28.3325 34.1169 29.268 32.3841C30.2035 30.6513 31.6142 28.4736 31.1237 25.9281C32.3352 24.7166 33.1171 23.5665 33.3629 21.8481C33.6086 20.1297 33.7613 19.5173 33.7613 18.5971C34.4054 19.7937 36.2457 23.568 36.2457 27.552C36.2457 31.536 35.8469 35.1278 33.7017 38.0107C31.5566 40.8936 28.1817 42.7958 26.7086 43.2864C25.2355 43.7769 24.2227 43.9627 24.2227 43.9627Z" fill="#608EFF"/>
<path d="M33.133 33.6566C33.3283 33.3206 33.229 32.8205 33.2069 32.4494C33.1767 31.947 33.1098 31.4474 33.0067 30.9547C32.6904 29.4461 31.991 28.1227 31.2211 26.8027L31.1251 25.9282C31.1251 25.9282 32.5651 24.4766 32.9875 23.293C33.4099 22.1093 33.7627 19.38 33.7627 18.5976C34.177 19.4136 35.1672 21.7474 35.3467 22.3378C35.5262 22.9282 35.8699 24.4406 35.5286 26.5416C35.1874 28.6426 33.8534 32.4144 33.133 33.6566Z" fill="#0040DD"/>
<path d="M20.0976 37.9512C20.0976 37.9512 20.0361 35.9419 20.7571 34.8072C21.478 33.6725 22.9041 32.3381 24.1612 31.3877C25.4184 30.4373 26.3313 29.831 27.06 28.9493C27.7886 28.0675 28.1496 27.3849 28.2408 26.4053C28.332 25.4256 28.1961 23.8987 27.9715 23.0409C27.7468 22.1832 26.9217 19.3973 26.2468 18.7209C26.1921 19.6934 25.8888 21.1411 25.4865 22.1102C25.0843 23.0793 24.419 24.5582 23.5665 25.4112C22.9425 26.0352 22.2964 26.6357 21.6638 27.2496C20.8728 28.0176 20.0419 28.7683 19.3291 29.6107C18.3004 30.827 17.4609 32.2867 17.0524 33.8347C16.7887 34.8526 16.6808 35.9045 16.7323 36.9547C16.7558 37.4736 16.7937 37.9953 16.9084 38.5017C17.0448 39.1041 17.2382 39.3657 17.2382 39.4339C17.2392 39.431 18.5793 38.1965 20.0976 37.9512Z" fill="#0040DD"/>
<path d="M24 42.5059C24 42.5059 24.192 40.6195 25.0968 39.1166C26.0016 37.6138 28.164 36.0648 28.7448 35.6813C29.3256 35.2978 30.1555 34.5 30.7536 33.6566C30.4176 36.3562 30.2016 37.1078 29.6803 37.8437C29.159 38.5795 27.8563 39.3619 28.1006 40.1285C28.345 40.895 29.0064 41.5555 29.3779 41.927C28.6282 42.384 27.1099 43.165 26.5368 43.344C25.9637 43.523 24.2227 43.9627 24.2227 43.9627L24 42.5059Z" fill="#132EA3"/>
<path d="M21.3941 39.9149C21.3203 39.214 21.31 38.508 21.3634 37.8053C21.4411 36.7949 21.8126 35.8325 22.2869 34.9421C23.1221 33.373 24.4133 32.2541 25.6469 31.0195C26.4062 30.2602 26.9045 29.7466 27.2419 29.256C27.5793 28.7654 28.0968 27.7546 28.2677 27.4013C28.1275 28.0896 27.767 29.2766 27.4627 29.8176C27.1584 30.3586 26.4619 31.4016 26.1105 31.8043C25.7592 32.207 24.311 33.7901 23.8258 34.3997C23.3405 35.0093 22.2043 36.6048 21.9773 37.1597C21.7502 37.7146 21.312 39.2414 21.3941 39.9149Z" fill="#132EA3"/>
<path d="M30.864 6.88127C30.7301 6.95807 30.0091 7.39103 29.8824 8.27711C29.8699 8.36543 29.7518 9.30383 30.4498 9.90239C31.1621 10.5134 32.0962 10.2326 32.2738 10.1784C32.3861 10.1448 33.6782 9.73295 33.7843 8.58383C33.8573 7.79711 33.3336 7.11167 32.7187 6.80495C31.8178 6.35519 30.9475 6.83327 30.864 6.88127Z" fill="#1D1D1D"/>
<path d="M31.691 7.8475C31.5275 7.88394 31.3781 7.96713 31.261 8.08695C31.1439 8.20677 31.0641 8.35806 31.0315 8.52238C30.9556 8.91358 31.1755 9.26878 31.4635 9.44254C31.7217 9.59998 32.1115 9.6571 32.4143 9.44254C32.7503 9.20254 32.8257 8.73598 32.675 8.38414C32.5161 8.01934 32.1086 7.75966 31.691 7.8475Z" fill="#608EFF"/>
</svg>
