<svg width="24" height="24" viewBox="0 0 24 24" fill="none" xmlns="http://www.w3.org/2000/svg">
<path d="M13.5 8.5V7.5H17C19.4839 7.5 21.5 9.51614 21.5 12C21.5 14.4839 19.4839 16.5 17 16.5H13.5V15.5H17C18.9261 15.5 20.5 13.9261 20.5 12C20.5 10.0739 18.9261 8.5 17 8.5H13.5ZM7 15.5H10.5V16.5H7C4.51614 16.5 2.5 14.4839 2.5 12C2.5 9.51614 4.51614 7.5 7 7.5H10.5V8.5H7C5.07386 8.5 3.5 10.0739 3.5 12C3.5 13.9261 5.07386 15.5 7 15.5ZM8.5 11.5H15.5V12.5H8.5V11.5Z" fill="#608EFF" stroke="#608EFF"/>
</svg>
