<svg width="44" height="44" viewBox="0 0 44 44" fill="none" xmlns="http://www.w3.org/2000/svg">
<g clip-path="url(#clip0_2001_156)">
<path d="M18.943 27.894H19.443V27.394V20.169V19.669H18.943H17.9881C18.4182 19.6226 18.7962 19.4532 19.082 19.1791C19.4206 18.8543 19.601 18.4095 19.601 17.934H19.6011L19.6009 17.9234C19.5909 17.4507 19.4152 17.0088 19.0803 16.6848C18.7444 16.3598 18.2824 16.186 17.759 16.186C17.2368 16.186 16.7692 16.3592 16.4282 16.6807C16.0863 17.0032 15.9 17.449 15.9 17.934C15.9 18.8414 16.5463 19.5645 17.4889 19.669H16.542H16.042V20.169V27.394V27.894H16.542H18.943ZM22.651 27.894H23.151V27.394V23.359C23.151 23.1457 23.1703 23.0188 23.1927 22.9649L23.1927 22.9649L23.195 22.9593C23.3203 22.6471 23.57 22.395 23.963 22.395C24.2502 22.395 24.391 22.493 24.4836 22.6289C24.5979 22.7968 24.679 23.0883 24.679 23.529V27.394V27.894H25.179H27.58H28.08V27.394V23.25C28.08 22.0541 27.7603 21.106 27.1582 20.4527C26.5524 19.7953 25.7174 19.498 24.816 19.498C24.1135 19.498 23.5707 19.6843 23.151 19.9583V19.669H22.651H20.251H19.7284L19.7515 20.1911C19.7658 20.5149 19.766 22.303 19.7623 24.0347C19.7604 24.8951 19.7576 25.7343 19.7552 26.3586L19.7522 27.1092L19.7513 27.3181L19.7511 27.3729L19.751 27.387L19.751 27.3905L19.751 27.3914L19.751 27.3916L20.251 27.394L19.751 27.3917L19.7487 27.894H20.251H22.651ZM14.5 15.146C14.5 14.8009 14.7903 14.5 15.175 14.5H28.825C29.2097 14.5 29.5 14.8009 29.5 15.146V28.854C29.5 29.1991 29.2097 29.5 28.825 29.5H15.175C14.7903 29.5 14.5 29.1991 14.5 28.854V15.146Z" fill="#608EFF" stroke="#608EFF"/>
</g>
<defs>
<clipPath id="clip0_2001_156">
<rect width="16" height="16" fill="white" transform="translate(14 14)"/>
</clipPath>
</defs>
</svg>
