<svg width="24" height="24" viewBox="0 0 24 24" fill="none" xmlns="http://www.w3.org/2000/svg">
<g clip-path="url(#clip0_652_724)">
<path d="M8.943 17.894H9.443V17.394V10.169V9.669H8.943H7.98811C8.4182 9.62261 8.79616 9.4532 9.08196 9.17912C9.42061 8.85435 9.601 8.4095 9.601 7.934H9.60111L9.60089 7.92342C9.59089 7.45074 9.41524 7.00885 9.08029 6.68478C8.74442 6.35982 8.28242 6.186 7.759 6.186C7.23677 6.186 6.76922 6.35915 6.42821 6.68074C6.08627 7.0032 5.9 7.44899 5.9 7.934C5.9 8.84141 6.54628 9.56446 7.48892 9.669H6.542H6.042V10.169V17.394V17.894H6.542H8.943ZM12.651 17.894H13.151V17.394V13.359C13.151 13.1457 13.1703 13.0188 13.1927 12.9649L13.1927 12.9649L13.195 12.9593C13.3203 12.6471 13.57 12.395 13.963 12.395C14.2502 12.395 14.391 12.493 14.4836 12.6289C14.5979 12.7968 14.679 13.0883 14.679 13.529V17.394V17.894H15.179H17.58H18.08V17.394V13.25C18.08 12.0541 17.7603 11.106 17.1582 10.4527C16.5524 9.7953 15.7174 9.498 14.816 9.498C14.1135 9.498 13.5707 9.68428 13.151 9.95829V9.669H12.651H10.251H9.72839L9.75149 10.1911C9.76582 10.5149 9.76602 12.303 9.76225 14.0347C9.76038 14.8951 9.75757 15.7343 9.75522 16.3586L9.75223 17.1092L9.75133 17.3181L9.75109 17.3729L9.75103 17.387L9.75101 17.3905L9.75101 17.3914L9.75101 17.3916L10.251 17.394L9.75101 17.3917L9.7487 17.894H10.251H12.651ZM4.5 5.146C4.5 4.80085 4.79028 4.5 5.175 4.5H18.825C19.2097 4.5 19.5 4.80085 19.5 5.146V18.854C19.5 19.1991 19.2097 19.5 18.825 19.5H5.175C4.79028 19.5 4.5 19.1991 4.5 18.854V5.146Z" fill="#608EFF" stroke="#608EFF"/>
</g>
<defs>
<clipPath id="clip0_652_724">
<rect width="16" height="16" fill="white" transform="translate(4 4)"/>
</clipPath>
</defs>
</svg>
