<svg width="34" height="40" viewBox="0 0 34 40" fill="none" xmlns="http://www.w3.org/2000/svg">
<path d="M10.3372 39.2878C10.0751 38.985 9.40356 38.7704 9.06132 38.5678C8.10891 38.0052 7.18594 37.3942 6.29604 36.7371C4.60692 35.4891 3.29988 34.1298 2.38164 32.2059C0.878278 29.0552 0.195239 25.3899 0.858599 21.9435C1.77876 17.1589 5.45892 13.7082 7.4826 12.512C9.50628 11.3158 14.2477 10.0736 14.984 8.96959C15.7204 7.86559 16.8239 6.11743 17.0543 5.10511C15.3517 5.42719 13.9256 5.51935 12.8677 5.10511C11.8098 4.69087 10.268 2.50591 11.8093 0.964634C13.3506 -0.576646 15.0757 0.136634 16.2253 0.734714C17.3749 1.33279 17.5597 2.09167 18.1348 2.09167C18.6464 2.09167 19.2008 1.52095 19.6228 1.28431C21.106 0.451994 23.1796 0.516314 24.8394 0.628634C27.08 0.781754 29.3768 1.23199 31.472 2.04799C31.8981 2.20827 32.3121 2.39884 32.7109 2.61823C32.8816 2.71303 33.046 2.81885 33.2029 2.93503C33.5149 3.17023 33.4021 3.53647 33.1655 3.77887C32.912 4.03855 32.5256 4.15231 32.1796 4.01887C31.9679 3.93631 31.7999 3.77455 31.6698 3.59215C31.6261 3.53071 31.3189 2.97247 31.3132 2.97583C30.4616 3.45103 29.5972 3.88015 28.8268 4.48687C27.8668 5.24383 25.5148 8.61727 25.0232 10.4389C24.5317 12.2605 24.248 15.5893 23.5717 16.88C22.8954 18.1707 22.6722 18.128 22.2018 18.5974C22.3098 18.4894 22.1658 17.7243 22.1538 17.576C22.1197 17.192 22.0861 16.8008 22.0266 16.4197C21.8912 15.5557 21.5212 14.7426 21.0431 14.0197C20.5991 13.3477 20.062 12.7434 19.5042 12.164C19.2469 11.8962 18.9935 11.6125 18.7079 11.3749C18.6402 11.3187 17.768 10.8219 17.7661 10.8498C17.6735 12.2154 17.6135 13.5987 17.1556 14.9053C16.6664 16.3016 15.8596 17.5707 14.938 18.7218C13.6588 20.323 12.164 21.9934 10.5484 23.2616C8.83764 24.6056 7.50372 26.3782 6.897 28.4821C6.34774 30.4158 6.40234 32.4712 7.05348 34.3731C7.71444 36.3013 9.02532 37.7715 10.3372 39.2878Z" fill="#608EFF"/>
<path d="M26.5315 10.7485C26.9203 10.6376 27.3269 10.339 27.6355 10.0894C28.0435 9.76017 28.2869 9.28641 28.5336 8.83473C28.7929 8.35998 29.0814 7.90182 29.3976 7.46289C30.0309 6.58301 30.7693 5.78381 31.5965 5.08305C31.8 4.91073 32.3131 4.40385 32.6333 4.53777C33.2928 4.81377 32.9169 5.95617 32.6333 6.23985C32.3496 6.52353 31.7918 6.60801 31.3469 6.60801C31.3469 7.12929 30.8333 7.94961 30.3192 8.46369C29.8051 8.97777 28.2489 10.0429 27.7123 10.304C27.3303 10.4813 26.9356 10.6299 26.5315 10.7485Z" fill="#608EFF"/>
<path d="M14.4725 39.9627C14.4725 39.9627 10.1381 37.7849 9.86448 33.7059C9.59088 29.6269 10.9685 26.9888 13.729 24.2283C16.4894 21.4678 17.041 21.1001 17.6549 19.9649C18.2688 18.8297 19.2802 16.3457 19.2802 14.8126C20.3842 16.4993 21.0898 19.0145 21.2741 20.7646C21.4584 22.5147 21.6418 25.0889 18.6974 28.279C15.7531 31.4691 14.699 33.0944 14.4734 34.903C14.2478 36.7117 14.4725 39.9627 14.4725 39.9627Z" fill="#608EFF"/>
<path d="M17.2227 39.9627C17.2227 39.9627 16.3333 36.4049 17.2227 34.4725C18.1121 32.54 21.3325 30.1169 22.268 28.3841C23.2035 26.6513 24.6142 24.4736 24.1237 21.9281C25.3352 20.7166 26.1171 19.5665 26.3629 17.8481C26.6086 16.1297 26.7613 15.5173 26.7613 14.5971C27.4054 15.7937 29.2457 19.568 29.2457 23.552C29.2457 27.536 28.8469 31.1278 26.7017 34.0107C24.5566 36.8936 21.1817 38.7958 19.7086 39.2864C18.2355 39.7769 17.2227 39.9627 17.2227 39.9627Z" fill="#608EFF"/>
<path d="M26.1331 29.6566C26.3284 29.3206 26.2291 28.8205 26.207 28.4494C26.1768 27.947 26.1099 27.4474 26.0068 26.9547C25.6905 25.4461 24.9912 24.1227 24.2212 22.8027L24.1252 21.9282C24.1252 21.9282 25.5652 20.4766 25.9876 19.293C26.41 18.1093 26.7628 15.38 26.7628 14.5976C27.1771 15.4136 28.1673 17.7474 28.3468 18.3378C28.5264 18.9282 28.87 20.4406 28.5288 22.5416C28.1875 24.6426 26.8536 28.4144 26.1331 29.6566Z" fill="#0040DD"/>
<path d="M13.0977 33.9512C13.0977 33.9512 13.0363 31.9419 13.7573 30.8072C14.4782 29.6725 15.9043 28.3381 17.1614 27.3877C18.4185 26.4373 19.3315 25.831 20.0601 24.9493C20.7888 24.0675 21.1497 23.3849 21.2409 22.4053C21.3321 21.4256 21.1963 19.8987 20.9717 19.0409C20.747 18.1832 19.9219 15.3973 19.247 14.7209C19.1923 15.6934 18.8889 17.1411 18.4867 18.1102C18.0845 19.0793 17.4192 20.5582 16.5667 21.4112C15.9427 22.0352 15.2966 22.6357 14.664 23.2496C13.8729 24.0176 13.0421 24.7683 12.3293 25.6107C11.3006 26.827 10.4611 28.2867 10.0526 29.8347C9.78891 30.8526 9.68097 31.9045 9.73246 32.9547C9.75598 33.4736 9.7939 33.9953 9.90862 34.5017C10.0449 35.1041 10.2384 35.3657 10.2384 35.4339C10.2393 35.431 11.5795 34.1965 13.0977 33.9512Z" fill="#0040DD"/>
<path d="M17 38.5059C17 38.5059 17.192 36.6195 18.0968 35.1166C19.0016 33.6138 21.164 32.0648 21.7448 31.6813C22.3256 31.2978 23.1555 30.5 23.7536 29.6566C23.4176 32.3562 23.2016 33.1078 22.6803 33.8437C22.159 34.5795 20.8563 35.3619 21.1006 36.1285C21.345 36.895 22.0064 37.5555 22.3779 37.927C21.6282 38.384 20.1099 39.165 19.5368 39.344C18.9637 39.523 17.2227 39.9627 17.2227 39.9627L17 38.5059Z" fill="#022F9D"/>
<path d="M14.3941 35.9149C14.3203 35.214 14.31 34.508 14.3634 33.8053C14.4412 32.7949 14.8127 31.8325 15.2869 30.9421C16.1221 29.373 17.4133 28.2541 18.6469 27.0195C19.4063 26.2602 19.9045 25.7466 20.242 25.256C20.5794 24.7654 21.0969 23.7546 21.2677 23.4013C21.1276 24.0896 20.7671 25.2766 20.4628 25.8176C20.1585 26.3586 19.462 27.4016 19.1106 27.8043C18.7592 28.207 17.3111 29.7901 16.8258 30.3997C16.3405 31.0093 15.2044 32.6048 14.9773 33.1597C14.7503 33.7146 14.3121 35.2414 14.3941 35.9149Z" fill="#022F9D"/>
<path d="M23.8641 2.88127C23.7302 2.95807 23.0092 3.39103 22.8825 4.27711C22.87 4.36543 22.752 5.30383 23.4499 5.90239C24.1622 6.51343 25.0963 6.23263 25.2739 6.17839C25.3862 6.14479 26.6784 5.73295 26.7844 4.58383C26.8574 3.79711 26.3337 3.11167 25.7188 2.80495C24.8179 2.35519 23.9476 2.83327 23.8641 2.88127Z" fill="#1D1D1D"/>
<path d="M24.691 3.8475C24.5275 3.88394 24.3781 3.96713 24.261 4.08695C24.1439 4.20677 24.0641 4.35806 24.0315 4.52238C23.9556 4.91358 24.1755 5.26878 24.4635 5.44254C24.7217 5.59998 25.1115 5.6571 25.4143 5.44254C25.7503 5.20254 25.8257 4.73598 25.675 4.38414C25.5161 4.01934 25.1086 3.75966 24.691 3.8475Z" fill="#608EFF"/>
</svg>
