<svg width="135" height="46" viewBox="0 0 135 46" fill="none" xmlns="http://www.w3.org/2000/svg">
<rect x="0.5" y="0.5" width="134" height="45" rx="22.5" stroke="#608EFF" stroke-dasharray="24 24"/>
<path d="M31.0907 30.27C30.2147 30.27 29.4167 30.126 28.6967 29.838C27.9767 29.55 27.3587 29.13 26.8427 28.578C26.3267 28.026 25.9247 27.348 25.6367 26.544C25.3607 25.728 25.2227 24.798 25.2227 23.754C25.2227 22.71 25.3787 21.786 25.6907 20.982C26.0147 20.166 26.4467 19.482 26.9867 18.93C27.5267 18.378 28.1567 17.958 28.8767 17.67C29.5967 17.382 30.3647 17.238 31.1807 17.238C31.6967 17.238 32.1587 17.274 32.5667 17.346C32.9867 17.418 33.3467 17.502 33.6467 17.598C33.9587 17.694 34.2107 17.79 34.4027 17.886C34.5947 17.982 34.7267 18.054 34.7987 18.102L34.2947 19.542C34.1867 19.47 34.0307 19.392 33.8267 19.308C33.6227 19.224 33.3887 19.14 33.1247 19.056C32.8727 18.972 32.5907 18.906 32.2787 18.858C31.9787 18.798 31.6727 18.768 31.3607 18.768C30.7007 18.768 30.1067 18.882 29.5787 19.11C29.0507 19.338 28.6007 19.668 28.2287 20.1C27.8567 20.532 27.5687 21.06 27.3647 21.684C27.1727 22.296 27.0767 22.986 27.0767 23.754C27.0767 24.498 27.1607 25.176 27.3287 25.788C27.5087 26.4 27.7727 26.928 28.1207 27.372C28.4687 27.804 28.9007 28.14 29.4167 28.38C29.9447 28.62 30.5567 28.74 31.2527 28.74C32.0567 28.74 32.7227 28.656 33.2507 28.488C33.7787 28.32 34.1747 28.17 34.4387 28.038L34.8887 29.478C34.8047 29.538 34.6547 29.616 34.4387 29.712C34.2227 29.796 33.9527 29.88 33.6287 29.964C33.3047 30.048 32.9267 30.12 32.4947 30.18C32.0627 30.24 31.5947 30.27 31.0907 30.27ZM44.7791 25.32C44.7791 26.064 44.6711 26.736 44.4551 27.336C44.2391 27.936 43.9331 28.452 43.5371 28.884C43.1531 29.316 42.6911 29.652 42.1511 29.892C41.6111 30.12 41.0231 30.234 40.3871 30.234C39.7511 30.234 39.1631 30.12 38.6231 29.892C38.0831 29.652 37.6151 29.316 37.2191 28.884C36.8351 28.452 36.5351 27.936 36.3191 27.336C36.1031 26.736 35.9951 26.064 35.9951 25.32C35.9951 24.588 36.1031 23.922 36.3191 23.322C36.5351 22.71 36.8351 22.188 37.2191 21.756C37.6151 21.324 38.0831 20.994 38.6231 20.766C39.1631 20.526 39.7511 20.406 40.3871 20.406C41.0231 20.406 41.6111 20.526 42.1511 20.766C42.6911 20.994 43.1531 21.324 43.5371 21.756C43.9331 22.188 44.2391 22.71 44.4551 23.322C44.6711 23.922 44.7791 24.588 44.7791 25.32ZM43.0331 25.32C43.0331 24.264 42.7931 23.43 42.3131 22.818C41.8451 22.194 41.2031 21.882 40.3871 21.882C39.5711 21.882 38.9231 22.194 38.4431 22.818C37.9751 23.43 37.7411 24.264 37.7411 25.32C37.7411 26.376 37.9751 27.216 38.4431 27.84C38.9231 28.452 39.5711 28.758 40.3871 28.758C41.2031 28.758 41.8451 28.452 42.3131 27.84C42.7931 27.216 43.0331 26.376 43.0331 25.32ZM47.1343 20.91C47.5183 20.814 48.0283 20.712 48.6643 20.604C49.3003 20.496 50.0323 20.442 50.8603 20.442C51.6043 20.442 52.2223 20.55 52.7143 20.766C53.2063 20.97 53.5963 21.264 53.8843 21.648C54.1843 22.02 54.3943 22.47 54.5143 22.998C54.6343 23.526 54.6943 24.108 54.6943 24.744V30H53.0203V25.104C53.0203 24.528 52.9783 24.036 52.8943 23.628C52.8223 23.22 52.6963 22.89 52.5163 22.638C52.3363 22.386 52.0963 22.206 51.7963 22.098C51.4963 21.978 51.1243 21.918 50.6803 21.918C50.5003 21.918 50.3143 21.924 50.1223 21.936C49.9303 21.948 49.7443 21.966 49.5643 21.99C49.3963 22.002 49.2403 22.02 49.0963 22.044C48.9643 22.068 48.8683 22.086 48.8083 22.098V30H47.1343V20.91ZM59.0363 20.64H62.5823V22.044H59.0363V26.364C59.0363 26.832 59.0723 27.222 59.1443 27.534C59.2163 27.834 59.3243 28.074 59.4683 28.254C59.6123 28.422 59.7923 28.542 60.0083 28.614C60.2243 28.686 60.4763 28.722 60.7643 28.722C61.2683 28.722 61.6703 28.668 61.9703 28.56C62.2823 28.44 62.4983 28.356 62.6183 28.308L62.9423 29.694C62.7743 29.778 62.4803 29.88 62.0603 30C61.6403 30.132 61.1603 30.198 60.6203 30.198C59.9843 30.198 59.4563 30.12 59.0363 29.964C58.6283 29.796 58.2983 29.55 58.0463 29.226C57.7943 28.902 57.6143 28.506 57.5063 28.038C57.4103 27.558 57.3623 27.006 57.3623 26.382V18.03L59.0363 17.742V20.64ZM67.8805 28.794C68.2765 28.794 68.6245 28.788 68.9245 28.776C69.2365 28.752 69.4945 28.716 69.6985 28.668V25.878C69.5785 25.818 69.3805 25.77 69.1045 25.734C68.8405 25.686 68.5165 25.662 68.1325 25.662C67.8805 25.662 67.6105 25.68 67.3225 25.716C67.0465 25.752 66.7885 25.83 66.5485 25.95C66.3205 26.058 66.1285 26.214 65.9725 26.418C65.8165 26.61 65.7385 26.868 65.7385 27.192C65.7385 27.792 65.9305 28.212 66.3145 28.452C66.6985 28.68 67.2205 28.794 67.8805 28.794ZM67.7365 20.406C68.4085 20.406 68.9725 20.496 69.4285 20.676C69.8965 20.844 70.2685 21.09 70.5445 21.414C70.8325 21.726 71.0365 22.104 71.1565 22.548C71.2765 22.98 71.3365 23.46 71.3365 23.988V29.838C71.1925 29.862 70.9885 29.898 70.7245 29.946C70.4725 29.982 70.1845 30.018 69.8605 30.054C69.5365 30.09 69.1825 30.12 68.7985 30.144C68.4265 30.18 68.0545 30.198 67.6825 30.198C67.1545 30.198 66.6685 30.144 66.2245 30.036C65.7805 29.928 65.3965 29.76 65.0725 29.532C64.7485 29.292 64.4965 28.98 64.3165 28.596C64.1365 28.212 64.0465 27.75 64.0465 27.21C64.0465 26.694 64.1485 26.25 64.3525 25.878C64.5685 25.506 64.8565 25.206 65.2165 24.978C65.5765 24.75 65.9965 24.582 66.4765 24.474C66.9565 24.366 67.4605 24.312 67.9885 24.312C68.1565 24.312 68.3305 24.324 68.5105 24.348C68.6905 24.36 68.8585 24.384 69.0145 24.42C69.1825 24.444 69.3265 24.468 69.4465 24.492C69.5665 24.516 69.6505 24.534 69.6985 24.546V24.078C69.6985 23.802 69.6685 23.532 69.6085 23.268C69.5485 22.992 69.4405 22.752 69.2845 22.548C69.1285 22.332 68.9125 22.164 68.6365 22.044C68.3725 21.912 68.0245 21.846 67.5925 21.846C67.0405 21.846 66.5545 21.888 66.1345 21.972C65.7265 22.044 65.4205 22.122 65.2165 22.206L65.0185 20.82C65.2345 20.724 65.5945 20.634 66.0985 20.55C66.6025 20.454 67.1485 20.406 67.7365 20.406ZM78.1848 30.216C77.4288 30.216 76.7628 30.096 76.1868 29.856C75.6228 29.616 75.1428 29.28 74.7468 28.848C74.3628 28.416 74.0748 27.906 73.8828 27.318C73.6908 26.718 73.5948 26.058 73.5948 25.338C73.5948 24.618 73.6968 23.958 73.9008 23.358C74.1168 22.758 74.4168 22.242 74.8008 21.81C75.1848 21.366 75.6528 21.024 76.2048 20.784C76.7688 20.532 77.3928 20.406 78.0768 20.406C78.4968 20.406 78.9168 20.442 79.3368 20.514C79.7568 20.586 80.1588 20.7 80.5428 20.856L80.1648 22.278C79.9128 22.158 79.6188 22.062 79.2828 21.99C78.9588 21.918 78.6108 21.882 78.2388 21.882C77.3028 21.882 76.5828 22.176 76.0788 22.764C75.5868 23.352 75.3408 24.21 75.3408 25.338C75.3408 25.842 75.3948 26.304 75.5028 26.724C75.6228 27.144 75.8028 27.504 76.0428 27.804C76.2948 28.104 76.6128 28.338 76.9968 28.506C77.3808 28.662 77.8488 28.74 78.4008 28.74C78.8448 28.74 79.2468 28.698 79.6068 28.614C79.9668 28.53 80.2488 28.44 80.4528 28.344L80.6868 29.748C80.5908 29.808 80.4528 29.868 80.2728 29.928C80.0928 29.976 79.8888 30.018 79.6608 30.054C79.4328 30.102 79.1868 30.138 78.9228 30.162C78.6708 30.198 78.4248 30.216 78.1848 30.216ZM84.0499 20.64H87.5959V22.044H84.0499V26.364C84.0499 26.832 84.0859 27.222 84.1579 27.534C84.2299 27.834 84.3379 28.074 84.4819 28.254C84.6259 28.422 84.8059 28.542 85.0219 28.614C85.2379 28.686 85.4899 28.722 85.7779 28.722C86.2819 28.722 86.6839 28.668 86.9839 28.56C87.2959 28.44 87.5119 28.356 87.6319 28.308L87.9559 29.694C87.7879 29.778 87.4939 29.88 87.0739 30C86.6539 30.132 86.1739 30.198 85.6339 30.198C84.9979 30.198 84.4699 30.12 84.0499 29.964C83.6419 29.796 83.3119 29.55 83.0599 29.226C82.8079 28.902 82.6279 28.506 82.5199 28.038C82.4239 27.558 82.3759 27.006 82.3759 26.382V18.03L84.0499 17.742V20.64ZM101.344 29.73C100.96 29.826 100.45 29.928 99.8141 30.036C99.1901 30.144 98.4641 30.198 97.6361 30.198C96.9161 30.198 96.3101 30.096 95.8181 29.892C95.3261 29.676 94.9301 29.376 94.6301 28.992C94.3301 28.608 94.1141 28.158 93.9821 27.642C93.8501 27.114 93.7841 26.532 93.7841 25.896V20.64H95.4581V25.536C95.4581 26.676 95.6381 27.492 95.9981 27.984C96.3581 28.476 96.9641 28.722 97.8161 28.722C97.9961 28.722 98.1821 28.716 98.3741 28.704C98.5661 28.692 98.7461 28.68 98.9141 28.668C99.0821 28.644 99.2321 28.626 99.3641 28.614C99.5081 28.59 99.6101 28.566 99.6701 28.542V20.64H101.344V29.73ZM106.406 28.794C107.09 28.794 107.594 28.704 107.918 28.524C108.254 28.344 108.422 28.056 108.422 27.66C108.422 27.252 108.26 26.928 107.936 26.688C107.612 26.448 107.078 26.178 106.334 25.878C105.974 25.734 105.626 25.59 105.29 25.446C104.966 25.29 104.684 25.11 104.444 24.906C104.204 24.702 104.012 24.456 103.868 24.168C103.724 23.88 103.652 23.526 103.652 23.106C103.652 22.278 103.958 21.624 104.57 21.144C105.182 20.652 106.016 20.406 107.072 20.406C107.336 20.406 107.6 20.424 107.864 20.46C108.128 20.484 108.374 20.52 108.602 20.568C108.83 20.604 109.028 20.646 109.196 20.694C109.376 20.742 109.514 20.784 109.61 20.82L109.304 22.26C109.124 22.164 108.842 22.068 108.458 21.972C108.074 21.864 107.612 21.81 107.072 21.81C106.604 21.81 106.196 21.906 105.848 22.098C105.5 22.278 105.326 22.566 105.326 22.962C105.326 23.166 105.362 23.346 105.434 23.502C105.518 23.658 105.638 23.802 105.794 23.934C105.962 24.054 106.166 24.168 106.406 24.276C106.646 24.384 106.934 24.498 107.27 24.618C107.714 24.786 108.11 24.954 108.458 25.122C108.806 25.278 109.1 25.464 109.34 25.68C109.592 25.896 109.784 26.16 109.916 26.472C110.048 26.772 110.114 27.144 110.114 27.588C110.114 28.452 109.79 29.106 109.142 29.55C108.506 29.994 107.594 30.216 106.406 30.216C105.578 30.216 104.93 30.144 104.462 30C103.994 29.868 103.676 29.766 103.508 29.694L103.814 28.254C104.006 28.326 104.312 28.434 104.732 28.578C105.152 28.722 105.71 28.794 106.406 28.794Z" fill="#608EFF"/>
</svg>
