<svg width="34" height="40" viewBox="0 0 34 40" fill="none" xmlns="http://www.w3.org/2000/svg">
<path d="M10.3372 39.2879C10.0751 38.985 9.40356 38.7704 9.06132 38.5679C8.10891 38.0052 7.18594 37.3942 6.29604 36.7371C4.60692 35.4891 3.29988 34.1298 2.38164 32.2059C0.878278 29.0552 0.195239 25.3899 0.858599 21.9435C1.77876 17.1589 5.45892 13.7082 7.4826 12.512C9.50628 11.3159 14.2477 10.0736 14.984 8.96962C15.7204 7.86562 16.8239 6.11746 17.0543 5.10514C15.3517 5.42722 13.9256 5.51938 12.8677 5.10514C11.8098 4.6909 10.268 2.50594 11.8093 0.964665C13.3506 -0.576615 15.0757 0.136665 16.2253 0.734745C17.3749 1.33282 17.5597 2.0917 18.1348 2.0917C18.6464 2.0917 19.2008 1.52098 19.6228 1.28434C21.106 0.452024 23.1796 0.516345 24.8394 0.628665C27.08 0.781785 29.3768 1.23202 31.472 2.04802C31.8981 2.20831 32.3121 2.39887 32.7109 2.61826C32.8816 2.71306 33.046 2.81888 33.2029 2.93506C33.5149 3.17026 33.4021 3.5365 33.1655 3.7789C32.912 4.03858 32.5256 4.15234 32.1796 4.0189C31.9679 3.93634 31.7999 3.77458 31.6698 3.59218C31.6261 3.53074 31.3189 2.9725 31.3132 2.97586C30.4616 3.45106 29.5972 3.88018 28.8268 4.4869C27.8668 5.24386 25.5148 8.6173 25.0232 10.4389C24.5317 12.2605 24.248 15.5893 23.5717 16.88C22.8954 18.1707 22.6722 18.128 22.2018 18.5975C22.3098 18.4895 22.1658 17.7243 22.1538 17.576C22.1197 17.192 22.0861 16.8008 22.0266 16.4197C21.8912 15.5557 21.5212 14.7426 21.0431 14.0197C20.5991 13.3477 20.062 12.7434 19.5042 12.164C19.2469 11.8962 18.9935 11.6125 18.7079 11.3749C18.6402 11.3187 17.768 10.8219 17.7661 10.8498C17.6735 12.2154 17.6135 13.5987 17.1556 14.9053C16.6664 16.3016 15.8596 17.5707 14.938 18.7218C13.6588 20.3231 12.164 21.9935 10.5484 23.2616C8.83764 24.6056 7.50372 26.3783 6.897 28.4821C6.34774 30.4159 6.40234 32.4713 7.05348 34.3731C7.71444 36.3013 9.02532 37.7715 10.3372 39.2879Z" fill="#608EFF"/>
<path d="M26.5315 10.7486C26.9203 10.6377 27.3269 10.3392 27.6355 10.0896C28.0435 9.76029 28.2869 9.28653 28.5336 8.83485C28.7929 8.3601 29.0814 7.90194 29.3976 7.46301C30.0309 6.58313 30.7693 5.78393 31.5965 5.08317C31.8 4.91085 32.3131 4.40397 32.6333 4.53789C33.2928 4.81389 32.9169 5.95629 32.6333 6.23997C32.3496 6.52365 31.7918 6.60813 31.3469 6.60813C31.3469 7.12941 30.8333 7.94973 30.3192 8.46381C29.8051 8.97789 28.2489 10.043 27.7123 10.3041C27.3303 10.4814 26.9356 10.63 26.5315 10.7486Z" fill="#608EFF"/>
<path d="M14.4725 39.9626C14.4725 39.9626 10.1381 37.7848 9.86448 33.7058C9.59088 29.6267 10.9685 26.9887 13.729 24.2282C16.4894 21.4677 17.041 21.1 17.6549 19.9648C18.2688 18.8296 19.2802 16.3456 19.2802 14.8125C20.3842 16.4992 21.0898 19.0144 21.2741 20.7645C21.4584 22.5146 21.6418 25.0888 18.6974 28.2789C15.7531 31.469 14.699 33.0943 14.4734 34.9029C14.2478 36.7115 14.4725 39.9626 14.4725 39.9626Z" fill="#608EFF"/>
<path d="M17.2227 39.9628C17.2227 39.9628 16.3333 36.405 17.2227 34.4725C18.1121 32.54 21.3325 30.117 22.268 28.3842C23.2035 26.6514 24.6142 24.4736 24.1237 21.9282C25.3352 20.7167 26.1171 19.5666 26.3629 17.8482C26.6086 16.1298 26.7613 15.5173 26.7613 14.5972C27.4054 15.7938 29.2457 19.568 29.2457 23.552C29.2457 27.536 28.8469 31.1279 26.7017 34.0108C24.5566 36.8936 21.1817 38.7959 19.7086 39.2864C18.2355 39.777 17.2227 39.9628 17.2227 39.9628Z" fill="#608EFF"/>
<path d="M26.1331 29.6567C26.3284 29.3207 26.2291 28.8205 26.207 28.4495C26.1768 27.947 26.1099 27.4475 26.0068 26.9548C25.6905 25.4461 24.9912 24.1228 24.2212 22.8028L24.1252 21.9282C24.1252 21.9282 25.5652 20.4767 25.9876 19.293C26.41 18.1093 26.7628 15.3801 26.7628 14.5977C27.1771 15.4137 28.1673 17.7474 28.3468 18.3378C28.5264 18.9282 28.87 20.4407 28.5288 22.5417C28.1875 24.6426 26.8536 28.4145 26.1331 29.6567Z" fill="#0040DD"/>
<path d="M13.0977 33.9514C13.0977 33.9514 13.0363 31.9422 13.7573 30.8074C14.4782 29.6727 15.9043 28.3383 17.1614 27.3879C18.4185 26.4375 19.3315 25.8313 20.0601 24.9495C20.7888 24.0678 21.1497 23.3852 21.2409 22.4055C21.3321 21.4258 21.1963 19.899 20.9717 19.0412C20.747 18.1834 19.9219 15.3975 19.247 14.7212C19.1923 15.6937 18.8889 17.1414 18.4867 18.1105C18.0845 19.0796 17.4192 20.5585 16.5667 21.4114C15.9427 22.0354 15.2966 22.6359 14.664 23.2498C13.8729 24.0178 13.0421 24.7686 12.3293 25.611C11.3006 26.8273 10.4611 28.287 10.0526 29.835C9.78891 30.8528 9.68097 31.9048 9.73246 32.955C9.75598 33.4738 9.7939 33.9956 9.90862 34.502C10.0449 35.1044 10.2384 35.366 10.2384 35.4342C10.2393 35.4313 11.5795 34.1967 13.0977 33.9514Z" fill="#0040DD"/>
<path d="M17 38.506C17 38.506 17.192 36.6196 18.0968 35.1167C19.0016 33.6139 21.164 32.0649 21.7448 31.6814C22.3256 31.2979 23.1555 30.5001 23.7536 29.6567C23.4176 32.3563 23.2016 33.1079 22.6803 33.8438C22.159 34.5796 20.8563 35.362 21.1006 36.1286C21.345 36.8951 22.0064 37.5556 22.3779 37.9271C21.6282 38.3841 20.1099 39.1651 19.5368 39.3441C18.9637 39.5231 17.2227 39.9628 17.2227 39.9628L17 38.506Z" fill="#022F9D"/>
<path d="M14.3941 35.915C14.3203 35.2141 14.31 34.5081 14.3634 33.8054C14.4412 32.795 14.8127 31.8326 15.2869 30.9422C16.1221 29.373 17.4133 28.2542 18.6469 27.0196C19.4063 26.2602 19.9045 25.7466 20.242 25.2561C20.5794 24.7655 21.0969 23.7546 21.2677 23.4014C21.1276 24.0897 20.7671 25.2767 20.4628 25.8177C20.1585 26.3586 19.462 27.4017 19.1106 27.8044C18.7592 28.2071 17.3111 29.7902 16.8258 30.3998C16.3405 31.0094 15.2044 32.6049 14.9773 33.1598C14.7503 33.7146 14.3121 35.2415 14.3941 35.915Z" fill="#022F9D"/>
<path d="M23.8641 2.88136C23.7302 2.95816 23.0092 3.39112 22.8825 4.2772C22.87 4.36552 22.752 5.30392 23.4499 5.90248C24.1622 6.51352 25.0963 6.23272 25.2739 6.17848C25.3862 6.14488 26.6784 5.73304 26.7844 4.58392C26.8574 3.7972 26.3337 3.11176 25.7188 2.80504C24.8179 2.35528 23.9476 2.83336 23.8641 2.88136Z" fill="#1D1D1D"/>
<path d="M24.691 3.84774C24.5275 3.88418 24.3781 3.96737 24.261 4.0872C24.1439 4.20702 24.0641 4.3583 24.0315 4.52262C23.9556 4.91382 24.1755 5.26902 24.4635 5.44278C24.7217 5.60022 25.1115 5.65734 25.4143 5.44278C25.7503 5.20278 25.8257 4.73622 25.675 4.38438C25.5161 4.01958 25.1086 3.7599 24.691 3.84774Z" fill="#608EFF"/>
</svg>
