<svg width="208" height="208" viewBox="0 0 208 208" fill="none" xmlns="http://www.w3.org/2000/svg">
<path d="M75.1276 187.581C73.9919 186.268 71.082 185.338 69.599 184.461C65.4719 182.023 61.4723 179.375 57.6161 176.527C50.2966 171.119 44.6327 165.229 40.6537 156.892C34.1391 143.239 31.1793 127.356 34.0538 112.422C38.0412 91.6884 53.9886 76.7353 62.7578 71.5519C71.5271 66.3686 92.0734 60.9855 95.2641 56.2015C98.4548 51.4175 103.237 43.8422 104.235 39.4555C96.8574 40.8511 90.6777 41.2505 86.0934 39.4555C81.509 37.6604 74.8281 28.1923 81.507 21.5134C88.1858 14.8345 95.6614 17.9254 100.643 20.5171C105.625 23.1087 106.425 26.3972 108.917 26.3972C111.134 26.3972 113.537 23.9241 115.365 22.8987C121.792 19.2919 130.778 19.5707 137.971 20.0574C147.68 20.7209 157.633 22.6719 166.712 26.2079C168.558 26.9025 170.352 27.7283 172.081 28.679C172.82 29.0898 173.533 29.5483 174.213 30.0518C175.565 31.071 175.076 32.658 174.05 33.7084C172.952 34.8337 171.278 35.3267 169.778 34.7484C168.861 34.3907 168.133 33.6897 167.569 32.8993C167.38 32.6331 166.049 30.214 166.024 30.2286C162.334 32.2878 158.588 34.1473 155.249 36.7764C151.089 40.0566 140.897 54.6748 138.767 62.5684C136.637 70.462 135.408 84.8868 132.477 90.4799C129.547 96.0731 128.579 95.8879 126.541 97.9222C127.009 97.4542 126.385 94.1387 126.333 93.4959C126.185 91.8319 126.04 90.1367 125.782 88.4852C125.195 84.7412 123.592 81.2177 121.52 78.0852C119.596 75.1732 117.268 72.5545 114.851 70.0439C113.737 68.8833 112.638 67.654 111.401 66.6244C111.107 66.3811 107.328 64.2283 107.32 64.3489C106.918 70.2665 106.658 76.2611 104.674 81.9228C102.554 87.9735 99.058 93.4731 95.0644 98.4609C89.5212 105.4 83.0441 112.638 76.0428 118.134C68.6297 123.958 62.8494 131.639 60.2202 140.756C57.8401 149.135 58.0767 158.042 60.8983 166.283C63.7625 174.639 69.443 181.01 75.1276 187.581Z" fill="white"/>
<path d="M145.303 63.91C146.988 63.4295 148.749 62.1357 150.087 61.0541C151.855 59.6273 152.909 57.5743 153.978 55.617C155.102 53.5598 156.352 51.5744 157.722 49.6724C160.467 45.8596 163.667 42.3964 167.251 39.3597C168.133 38.613 170.356 36.4165 171.744 36.9969C174.602 38.1929 172.973 43.1433 171.744 44.3725C170.514 45.6018 168.097 45.9679 166.169 45.9679C166.169 48.2268 163.944 51.7815 161.716 54.0092C159.488 56.2369 152.745 60.8524 150.42 61.9839C148.764 62.7521 147.054 63.396 145.303 63.91Z" fill="white"/>
<path d="M93.0469 190.505C93.0469 190.505 74.2645 181.068 73.0789 163.392C71.8933 145.717 77.8629 134.285 89.825 122.323C101.787 110.361 104.177 108.767 106.837 103.848C109.498 98.929 113.88 88.165 113.88 81.5215C118.664 88.8306 121.722 99.7298 122.521 107.313C123.319 114.897 124.114 126.052 111.355 139.876C98.5964 153.7 94.0287 160.742 93.0511 168.58C92.0735 176.417 93.0469 190.505 93.0469 190.505Z" fill="#C2D4FF"/>
<path d="M104.965 190.505C104.965 190.505 101.111 175.088 104.965 166.714C108.819 158.34 122.774 147.84 126.828 140.331C130.882 132.822 136.995 123.385 134.869 112.355C140.119 107.105 143.508 102.122 144.573 94.6752C145.638 87.2288 146.299 84.5748 146.299 80.5874C149.09 85.7728 157.065 102.128 157.065 119.392C157.065 136.656 155.337 152.221 146.041 164.713C136.746 177.205 122.121 185.449 115.738 187.574C109.354 189.7 104.965 190.505 104.965 190.505Z" fill="#C2D4FF"/>
<path d="M143.576 145.845C144.423 144.389 143.992 142.222 143.896 140.614C143.766 138.437 143.476 136.272 143.029 134.137C141.658 127.6 138.628 121.865 135.291 116.145L134.875 112.355C134.875 112.355 141.115 106.065 142.946 100.936C144.776 95.8069 146.305 83.98 146.305 80.5896C148.1 84.1256 152.391 94.2386 153.169 96.797C153.947 99.3554 155.436 105.909 153.957 115.014C152.479 124.118 146.698 140.462 143.576 145.845Z" fill="#8BADFF"/>
<path d="M87.0896 164.455C87.0896 164.455 86.8234 155.748 89.9476 150.831C93.0717 145.914 99.2514 140.132 104.699 136.013C110.146 131.895 114.103 129.268 117.26 125.447C120.417 121.626 121.982 118.668 122.377 114.423C122.772 110.177 122.183 103.561 121.21 99.844C120.237 96.1271 116.661 84.0547 113.737 81.124C113.499 85.3381 112.185 91.6114 110.442 95.8109C108.699 100.01 105.816 106.419 102.122 110.115C99.4178 112.819 96.6181 115.421 93.8767 118.081C90.4488 121.409 86.8484 124.663 83.7596 128.313C79.3021 133.584 75.6642 139.909 73.8941 146.617C72.7514 151.028 72.2836 155.586 72.5068 160.137C72.6087 162.385 72.773 164.646 73.2701 166.841C73.8608 169.451 74.6991 170.585 74.6991 170.88C74.7032 170.868 80.5106 165.518 87.0896 164.455Z" fill="#8BADFF"/>
<path d="M104 184.192C104 184.192 104.832 176.018 108.753 169.505C112.674 162.993 122.044 156.281 124.561 154.619C127.078 152.957 130.674 149.5 133.266 145.845C131.81 157.543 130.874 160.801 128.615 163.989C126.356 167.178 120.711 170.568 121.769 173.89C122.828 177.212 125.694 180.074 127.304 181.684C124.055 183.664 117.476 187.048 114.993 187.824C112.509 188.6 104.965 190.505 104.965 190.505L104 184.192Z" fill="#608EFF"/>
<path d="M92.7078 172.964C92.3879 169.927 92.3434 166.868 92.5747 163.823C92.9117 159.444 94.5216 155.274 96.5766 151.416C100.196 144.616 105.791 139.768 111.137 134.418C114.427 131.127 116.586 128.902 118.048 126.776C119.511 124.65 121.753 120.27 122.493 118.739C121.886 121.721 120.324 126.865 119.005 129.209C117.687 131.554 114.668 136.073 113.146 137.819C111.623 139.564 105.348 146.424 103.245 149.065C101.142 151.707 96.2189 158.621 95.235 161.025C94.2512 163.43 92.3521 170.046 92.7078 172.964Z" fill="#608EFF"/>
<path d="M133.744 29.8187C133.164 30.1515 130.04 32.0277 129.49 35.8674C129.436 36.2501 128.925 40.3165 131.949 42.9103C135.036 45.5581 139.083 44.3413 139.853 44.1063C140.34 43.9607 145.939 42.176 146.399 37.1965C146.715 33.7874 144.446 30.8171 141.781 29.488C137.877 27.5391 134.106 29.6107 133.744 29.8187Z" fill="#1D1D1D"/>
<path d="M137.328 34.0058C136.619 34.1637 135.972 34.5242 135.464 35.0435C134.957 35.5627 134.612 36.2182 134.47 36.9303C134.141 38.6255 135.094 40.1647 136.342 40.9177C137.461 41.5999 139.15 41.8474 140.462 40.9177C141.918 39.8777 142.245 37.8559 141.592 36.3313C140.903 34.7505 139.138 33.6252 137.328 34.0058Z" fill="white"/>
</svg>
