<svg xmlns="http://www.w3.org/2000/svg">
    <symbol viewBox="0 0 32 24" id="contact-user">
        <path d="M22 6C22 4.9 21.1 4 20 4H4C2.9 4 2 4.9 2 6V18C2 19.1 2.9 20 4 20H20C21.1 20 22 19.1 22 18V6ZM20 6L12 11L4 6H20ZM20 18H4V8L12 13L20 8V18Z" />
    </symbol>
    <symbol viewBox="0 0 32 24" id="contact-email">
        <path d="M22 6C22 4.9 21.1 4 20 4H4C2.9 4 2 4.9 2 6V18C2 19.1 2.9 20 4 20H20C21.1 20 22 19.1 22 18V6ZM20 6L12 11L4 6H20ZM20 18H4V8L12 13L20 8V18Z" />
    </symbol>
    <symbol viewBox="0 0 32 24" id="contact-company">
        <path d="M12 7V3H2V21H22V7H12ZM10 19H4V17H10V19ZM10 15H4V13H10V15ZM10 11H4V9H10V11ZM10 7H4V5H10V7ZM20 19H12V9H20V19ZM18 11H14V13H18V11ZM18 15H14V17H18V15Z"/>
    </symbol>
</svg>
