<svg width="129" height="156" viewBox="0 0 129 156" fill="none" xmlns="http://www.w3.org/2000/svg">
<g clip-path="url(#clip0_599_1329)">
<path d="M84.3037 137.581C84.2103 137.714 84.1375 137.861 84.0878 138.015C83.8719 138.316 82.0074 139.603 82.1252 139.864C84.002 140.205 85.7659 141.006 87.2598 142.198C88.7537 143.389 89.9311 144.933 90.6873 146.693C89.0043 145.475 89.706 146.624 89.387 146.693C89.2398 146.727 88.2781 144.351 87.9837 143.976C86.3694 141.925 82.66 140.352 80.084 140.604L66.782 144.302C66.571 144.237 66.149 144.464 66.1294 144.085C68.5288 143.592 79.4118 140.337 81.1684 139.302C83.2144 138.089 85.236 135.274 85.9278 132.996C86.4332 134.243 84.9857 136.571 84.3037 137.581Z" stroke="#C2D4FF" stroke-miterlimit="10"/>
<path d="M44.3882 144.321C44.7464 144.321 45.2027 144.371 44.82 144.755C43.5295 144.622 39.2853 148.206 40.4923 149.104C41.6159 149.957 45.6737 145.919 46.552 145.189C47.2684 146.486 42.9113 148.946 44.5894 150.405C46.0614 151.673 49.496 147.344 49.5647 145.84C50.2762 147.176 47.7836 151.263 50.6491 150.622C52.1211 150.307 52.8277 147.21 52.2683 145.948C53.6667 146.791 52.3517 150.706 50.865 151.061C48.7797 151.554 48.9023 150.075 48.7012 149.972C48.5 149.868 46.1497 151.49 44.5894 151.061C44.2459 150.967 43.1615 149.474 42.2096 149.321C41.4442 149.197 38.6032 150.593 40.1537 147.038C40.4874 146.308 43.6718 144.346 44.3882 144.321Z" stroke="#C2D4FF" stroke-miterlimit="10"/>
<path d="M30.3255 142.364C29.1528 148.379 33.878 151.998 33.5689 144.104C35.9339 147.462 31.8515 151.593 29.6729 147.146L28.7996 148.206C30.3942 146.599 29.5012 144.341 30.3255 142.364Z" stroke="#C2D4FF" stroke-miterlimit="10"/>
<path d="M80.2999 146.693C80.0987 146.609 80.0447 148.221 79.3185 147.127C79.0634 146.742 78.9702 145.504 78.6708 145.061C76.7082 142.196 73.9604 143.912 71.3108 144.41C71.1391 143.996 76.9879 141.245 79.0977 143.976C79.873 144.982 79.2106 145.761 80.2999 146.693Z" stroke="#C2D4FF" stroke-miterlimit="10"/>
<path d="M87.5519 146.929C87.2271 147.262 86.8629 147.553 86.4675 147.797C86.3032 146.457 85.6471 145.226 84.6275 144.346C83.3812 143.325 81.4283 143.276 80.2998 142.171C84.7551 141.974 85.4469 143.991 87.5519 146.929Z" stroke="#C2D4FF" stroke-miterlimit="10"/>
<path d="M7.52913 143.404C7.063 143.36 6.50364 143.498 6.05713 143.325C7.64199 141.772 8.903 139.874 11.3024 139.337C9.75676 140.372 7.80391 141.432 7.52913 143.404Z" stroke="#C2D4FF" stroke-miterlimit="10"/>
<path d="M13.5544 143.666C12.573 143.666 12.0382 144.035 10.9587 144.104L16.2629 139.539L13.9911 142.255L13.5544 143.666Z" stroke="#C2D4FF" stroke-miterlimit="10"/>
<path d="M35.7326 142.364L39.5205 144.43C37.2144 144.947 34.3489 145.707 35.7326 142.364Z" stroke="#C2D4FF" stroke-miterlimit="10"/>
<path d="M3.49575 17.5754C4.01095 19.8237 5.03154 23.201 7.91175 22.9003C7.46525 25.5578 4.81564 22.6192 4.3397 21.2732C3.07377 23.344 6.95986 36.5279 8.66738 36.7054C9.12861 36.7547 9.64872 35.9905 9.64872 35.5122C9.64872 34.9502 8.31901 30.9714 8.13256 29.8571C8.06877 29.4824 7.61245 25.8684 7.80872 25.8388C8.64776 28.2152 8.9765 32.2483 10.0805 34.4226C12.0726 38.3275 26.0125 43.2973 30.5266 43.2283C28.1174 38.224 23.5248 34.9009 19.5062 31.2721C25.5169 34.965 30.8357 40.9061 32.9211 47.5917L30.7572 43.6474C24.7956 43.9334 18.9812 42.0401 13.8832 39.0818C13.1619 38.6628 10.8459 36.4737 10.635 36.4737C9.9794 36.8872 9.36343 37.3609 8.79496 37.8887C8.58397 38.9882 12.9509 44.4691 13.8832 45.3122C20.4189 51.1202 30.6493 51.329 34.8347 59.7649C34.5894 58.7788 30.0262 53.8829 29.4374 53.8484C28.3236 53.7794 28.9614 56.7425 27.9457 57.3588C27.7691 56.1854 28.5051 54.8049 27.7298 53.666C26.8466 52.3742 18.0293 48.2425 16.047 46.9261C6.92551 40.8617 4.4182 30.7199 3.60369 20.726C3.56935 20.2921 2.54385 18.6108 3.49575 17.5754Z" stroke="#C2D4FF" stroke-miterlimit="10"/>
<path d="M83.3322 10.1849C88.0524 9.42565 93.7834 10.678 95.1082 15.2879L92.9394 14.8589C86.5607 7.34994 80.1477 10.392 75.8446 17.901C76.6394 18.3102 77.7189 17.26 78.553 17.1417C78.8082 17.1023 80.8199 17.1023 80.8248 17.2502C79.8435 17.4918 78.396 17.477 77.4687 17.7925C74.7308 18.7342 74.3873 20.7508 72.6013 22.6835C71.3336 23.9533 69.9969 25.1515 68.5974 26.2728C68.0479 26.0953 72.8564 21.441 73.2489 20.948C75.8544 17.689 78.7788 10.9146 83.3322 10.1849Z" stroke="#C2D4FF" stroke-miterlimit="10"/>
<path d="M75.7563 22.3579C75.8839 22.3333 76.6444 22.2593 76.4089 22.5749C74.3776 23.0679 72.7829 24.3449 71.1048 25.5331C71.1048 26.3072 72.5277 25.5972 72.7289 25.2077L71.9733 26.1937C72.0812 27.3573 74.9713 24.7146 75.6484 25.3211C75.0203 26.036 70.83 27.027 70.8889 27.7123L72.8516 28.3681C71.6936 29.0435 70.7319 30.0789 69.3924 30.1036C69.5199 31.0897 72.6357 30.3994 72.6357 30.7593C71.1195 31.1242 69.9223 31.2523 68.6318 30.212L71.1195 28.8019C71.4679 27.737 67.1304 28.8019 71.3403 26.4107L69.6083 25.9768C71.4532 25.114 73.7544 22.7376 75.7563 22.3579Z" stroke="#C2D4FF" stroke-miterlimit="10"/>
<path d="M17.774 27.1404C27.8572 27.17 39.9571 28.8167 45.5753 38.3373C41.3924 32.9291 35.3233 29.317 28.5932 28.23C25.2665 27.6383 21.0909 28.1018 18.2058 27.5743C17.8967 27.52 17.4502 27.6926 17.774 27.1404Z" stroke="#C2D4FF" stroke-miterlimit="10"/>
<path d="M45.2517 12.586C47.4008 12.2853 52.5184 14.1144 52.4988 16.8261C50.4576 15.209 48.5293 14.0454 45.8993 13.6707C45.0799 13.5573 43.2596 14.4546 44.0642 13.1283C44.4141 12.8596 44.8201 12.6742 45.2517 12.586Z" stroke="#C2D4FF" stroke-miterlimit="10"/>
<path d="M11.9353 12.3591C12.8185 12.2112 16.6948 12.2704 17.0186 13.3452C17.1953 13.927 15.7184 17.9354 14.6389 16.6091C15.4436 15.1941 17.7988 13.3008 15.1786 12.8029C13.054 12.3986 8.52519 13.2416 9.1238 15.8449C6.06694 15.8597 10.5075 12.5859 11.9353 12.3591Z" stroke="#C2D4FF" stroke-miterlimit="10"/>
<path d="M18.6475 29.3147C24.1318 30.2734 29.3171 32.5071 33.7895 35.8376L36.9297 38.9881L28.8092 33.0125L18.6475 29.3147Z" stroke="#C2D4FF" stroke-miterlimit="10"/>
<path d="M8.68715 18.665C9.17782 18.665 7.1023 26.9728 13.7754 20.509C11.3319 25.5972 7.18081 24.5667 8.68715 18.665Z" stroke="#C2D4FF" stroke-miterlimit="10"/>
<path d="M34.8434 9.60513C35.0615 9.66383 36.6975 9.83378 36.1915 10.4172L28.9832 10.1507C30.5368 8.99175 33.0411 9.20153 34.8434 9.60513Z" stroke="#C2D4FF" stroke-miterlimit="10"/>
<path d="M27.2932 12.1421C31.7582 11.7477 40.6786 14.7602 43.0878 18.882C47.9944 13.9516 55.4329 20.0653 50.5557 25.5085C54.5792 28.9252 59.1375 31.7898 62.9941 35.4038C63.6369 36.0053 69.2354 41.2266 68.1854 41.9267C61.1738 33.195 51.3359 27.5348 42.8719 20.4006L42.3321 21.3866C48.6078 26.6326 55.9138 30.6755 61.9098 36.2764C63.1217 37.4055 68.7399 42.9079 68.2884 44.4313C68.0088 45.4174 65.526 42.045 64.9372 41.4731C58.0139 35.034 48.9414 29.2852 40.4872 25.3852C37.6904 29.364 32.5776 27.5644 28.8044 26.2579C27.9261 25.9522 25.9291 24.409 25.3697 24.2857C23.4954 23.9356 19.5848 24.9069 17.5779 25.1535L24.8251 23.7434C24.2805 23.5412 23.1814 21.5099 22.99 21.4606C22.6858 21.3768 17.5191 22.5847 17.47 22.2199L22.8673 20.9183C22.9606 16.4217 19.1628 18.4284 16.1599 17.2205C16.7487 16.052 17.8822 14.3165 19.2953 14.0699C24.202 13.2071 22.2785 18.2904 23.7113 21.1352C25.3501 24.34 34.6041 27.6039 37.8818 26.46C39.2213 25.967 42.337 20.8196 42.2978 19.6117C42.2242 15.6674 28.8339 11.7231 25.5317 12.7634C25.6936 12.3887 26.9889 12.1668 27.2932 12.1421Z" stroke="#C2D4FF" stroke-miterlimit="10"/>
<path d="M42.2239 22.1409C50.3641 28.3926 59.5151 33.5548 66.1293 41.5962C60.055 36.4792 53.5801 31.8625 46.7675 27.7911C45.742 27.1847 40.7323 25.1139 40.8157 24.2067C41.2384 23.4871 41.7089 22.7969 42.2239 22.1409Z" stroke="#C2D4FF" stroke-miterlimit="10"/>
<path d="M19.0744 14.7505C20.9733 14.2574 22.5091 15.2435 22.4257 17.2502C20.9095 15.919 18.8487 15.564 17.1265 16.7078C17.3375 16.1556 18.5936 14.8688 19.0744 14.7505Z" stroke="#C2D4FF" stroke-miterlimit="10"/>
<path d="M45.4676 19.3158C47.0475 19.0299 47.9945 21.2288 46.7679 21.7071C45.0064 22.3924 43.4804 19.6758 45.4676 19.3158Z" stroke="#C2D4FF" stroke-miterlimit="10"/>
<path d="M26.8614 13.6608C29.6141 13.2861 40.0064 15.8647 40.6001 18.9906C40.9289 20.7014 39.0741 25.4001 37.2489 25.8389C34.2656 26.539 25.5464 23.4181 24.3737 20.2922C23.412 17.7284 23.6083 14.1095 26.8614 13.6608Z" stroke="#C2D4FF" stroke-miterlimit="10"/>
<g style="mix-blend-mode:hard-light" filter="url(#filter0_f_599_1329)">
<path d="M85.165 137.421L115.778 137.683C117.638 137.702 119.462 137.17 121.023 136.154C122.086 135.509 122.964 134.598 123.572 133.51C124.18 132.422 124.497 131.194 124.492 129.947C124.492 129.947 122.382 134.409 115.459 134.034C107.167 133.585 86.112 133.433 86.112 133.433" stroke="white" stroke-width="1.4" stroke-miterlimit="10"/>
</g>
<g style="mix-blend-mode:hard-light" filter="url(#filter1_f_599_1329)">
<path d="M85.165 137.421L115.778 137.683C117.638 137.702 119.462 137.17 121.023 136.154C122.086 135.509 122.964 134.598 123.572 133.51C124.18 132.422 124.497 131.194 124.492 129.947C124.492 129.947 122.382 134.409 115.459 134.034C107.167 133.585 86.112 133.433 86.112 133.433" stroke="white" stroke-width="2" stroke-miterlimit="10"/>
</g>
<g style="mix-blend-mode:hard-light" filter="url(#filter2_ddi_599_1329)">
<path d="M85.165 137.421L115.778 137.683C117.638 137.702 119.462 137.17 121.023 136.154C122.086 135.509 122.964 134.598 123.572 133.51C124.18 132.422 124.497 131.194 124.492 129.947C124.492 129.947 122.382 134.409 115.459 134.034C107.167 133.585 86.112 133.433 86.112 133.433" stroke="white" stroke-opacity="0.2" stroke-miterlimit="10"/>
</g>
<g filter="url(#filter3_f_599_1329)">
<path d="M85.165 137.421L115.778 137.683C117.638 137.702 119.462 137.17 121.023 136.154C122.086 135.509 122.964 134.598 123.572 133.51C124.18 132.422 124.497 131.194 124.492 129.947C124.492 129.947 122.382 134.409 115.459 134.034C107.167 133.585 86.112 133.433 86.112 133.433" stroke="#D4E5FF" stroke-width="1.6" stroke-miterlimit="10"/>
</g>
<g style="mix-blend-mode:hard-light" filter="url(#filter4_f_599_1329)">
<path d="M27.4575 10.3804C27.4575 10.3804 28.4977 0.0709025 38.7085 7.18547" stroke="white" stroke-width="2.6" stroke-miterlimit="10"/>
</g>
<g style="mix-blend-mode:hard-light" filter="url(#filter5_f_599_1329)">
<path d="M27.4575 10.3804C27.4575 10.3804 28.4977 0.0709025 38.7085 7.18547" stroke="white" stroke-width="3.4" stroke-miterlimit="10"/>
</g>
<g style="mix-blend-mode:hard-light" filter="url(#filter6_ddi_599_1329)">
<path d="M27.4575 10.3804C27.4575 10.3804 28.4977 0.0709025 38.7085 7.18547" stroke="white" stroke-opacity="0.2" stroke-width="2.6" stroke-miterlimit="10"/>
</g>
<g filter="url(#filter7_f_599_1329)">
<path d="M27.4575 10.3804C27.4575 10.3804 28.4977 0.0709025 38.7085 7.18547" stroke="#DAF4FF" stroke-width="1.6" stroke-miterlimit="10"/>
</g>
<g style="mix-blend-mode:hard-light" filter="url(#filter8_f_599_1329)">
<path d="M55.8714 144.804L69.0556 144.952C73.4716 150.247 81.3567 148.664 81.3567 148.664C84.4331 150.02 85.2035 146.855 85.2035 146.855C87.2496 147.59 90.6008 148.334 90.6008 148.334C95.8755 142.911 85.2035 137.98 85.2035 137.98C96.0423 104.207 85.3507 90.742 85.3507 90.742C79.4136 80.5311 74.8161 67.0169 73.084 61.5491C72.6375 60.1538 72.1468 58.7733 71.5678 57.4322C65.2235 42.7199 72.034 36.2907 72.034 36.2907C87.7893 42.9516 93.7117 29.8368 95.7185 22.6285C96.2718 20.7296 96.3135 18.7171 95.8394 16.7967C95.3652 14.8763 94.3922 13.1167 93.0198 11.6978C87.9365 6.60965 80.1398 8.79382 76.8671 11.8605C72.6179 15.8344 64.1097 18.3342 64.1097 18.3342C48.6733 2.82311 34.5077 6.99424 28.129 10.2384C25.9498 11.3568 24.242 13.2234 23.3156 15.4992L22.3686 17.8214L7.15791 15.4647C1.00494 14.5821 4.32676 24.5908 4.32676 24.5908C3.97604 26.4332 4.07688 28.3336 4.62057 30.1281C5.16426 31.9225 6.13447 33.557 7.4474 34.8904C5.9754 44.8992 28.6442 54.3211 28.6442 54.3211C28.2075 56.8258 21.5099 66.5288 21.5099 66.5288C11.8438 77.7159 17.7024 98.1721 17.7024 98.1721C7.5946 109.211 23.0997 136.136 23.0997 136.136C8.74767 133.045 6.99108 138.636 6.99108 138.636C0.401416 142.319 8.01658 144.819 8.01658 144.819L21.0291 144.508" stroke="white" stroke-width="1.4" stroke-miterlimit="10"/>
</g>
<g style="mix-blend-mode:hard-light" filter="url(#filter9_f_599_1329)">
<path d="M55.8714 144.804L69.0556 144.952C73.4716 150.247 81.3567 148.664 81.3567 148.664C84.4331 150.02 85.2035 146.855 85.2035 146.855C87.2496 147.59 90.6008 148.334 90.6008 148.334C95.8755 142.911 85.2035 137.98 85.2035 137.98C96.0423 104.207 85.3507 90.742 85.3507 90.742C79.4136 80.5311 74.8161 67.0169 73.084 61.5491C72.6375 60.1538 72.1468 58.7733 71.5678 57.4322C65.2235 42.7199 72.034 36.2907 72.034 36.2907C87.7893 42.9516 93.7117 29.8368 95.7185 22.6285C96.2718 20.7296 96.3135 18.7171 95.8394 16.7967C95.3652 14.8763 94.3922 13.1167 93.0198 11.6978C87.9365 6.60965 80.1398 8.79382 76.8671 11.8605C72.6179 15.8344 64.1097 18.3342 64.1097 18.3342C48.6733 2.82311 34.5077 6.99424 28.129 10.2384C25.9498 11.3568 24.242 13.2234 23.3156 15.4992L22.3686 17.8214L7.15791 15.4647C1.00494 14.5821 4.32676 24.5908 4.32676 24.5908C3.97604 26.4332 4.07688 28.3336 4.62057 30.1281C5.16426 31.9225 6.13447 33.557 7.4474 34.8904C5.9754 44.8992 28.6442 54.3211 28.6442 54.3211C28.2075 56.8258 21.5099 66.5288 21.5099 66.5288C11.8438 77.7159 17.7024 98.1721 17.7024 98.1721C7.5946 109.211 23.0997 136.136 23.0997 136.136C8.74767 133.045 6.99108 138.636 6.99108 138.636C0.401416 142.319 8.01658 144.819 8.01658 144.819L21.0291 144.508" stroke="white" stroke-width="2" stroke-miterlimit="10"/>
</g>
<g style="mix-blend-mode:hard-light" filter="url(#filter10_ddi_599_1329)">
<path d="M55.8714 144.804L69.0556 144.952C73.4716 150.247 81.3567 148.664 81.3567 148.664C84.4331 150.02 85.2035 146.855 85.2035 146.855C87.2496 147.59 90.6008 148.334 90.6008 148.334C95.8755 142.911 85.2035 137.98 85.2035 137.98C96.0423 104.207 85.3507 90.742 85.3507 90.742C79.4136 80.5311 74.8161 67.0169 73.084 61.5491C72.6375 60.1538 72.1468 58.7733 71.5678 57.4322C65.2235 42.7199 72.034 36.2907 72.034 36.2907C87.7893 42.9516 93.7117 29.8368 95.7185 22.6285C96.2718 20.7296 96.3135 18.7171 95.8394 16.7967C95.3652 14.8763 94.3922 13.1167 93.0198 11.6978C87.9365 6.60965 80.1398 8.79382 76.8671 11.8605C72.6179 15.8344 64.1097 18.3342 64.1097 18.3342C48.6733 2.82311 34.5077 6.99424 28.129 10.2384C25.9498 11.3568 24.242 13.2234 23.3156 15.4992L22.3686 17.8214L7.15791 15.4647C1.00494 14.5821 4.32676 24.5908 4.32676 24.5908C3.97604 26.4332 4.07688 28.3336 4.62057 30.1281C5.16426 31.9225 6.13447 33.557 7.4474 34.8904C5.9754 44.8992 28.6442 54.3211 28.6442 54.3211C28.2075 56.8258 21.5099 66.5288 21.5099 66.5288C11.8438 77.7159 17.7024 98.1721 17.7024 98.1721C7.5946 109.211 23.0997 136.136 23.0997 136.136C8.74767 133.045 6.99108 138.636 6.99108 138.636C0.401416 142.319 8.01658 144.819 8.01658 144.819L21.0291 144.508" stroke="white" stroke-opacity="0.2" stroke-miterlimit="10"/>
</g>
<g filter="url(#filter11_f_599_1329)">
<path d="M55.8714 144.804L69.0556 144.952C73.4716 150.247 81.3567 148.664 81.3567 148.664C84.4331 150.02 85.2035 146.855 85.2035 146.855C87.2496 147.59 90.6008 148.334 90.6008 148.334C95.8755 142.911 85.2035 137.98 85.2035 137.98C96.0423 104.207 85.3507 90.742 85.3507 90.742C79.4136 80.5311 74.8161 67.0169 73.084 61.5491C72.6375 60.1538 72.1468 58.7733 71.5678 57.4322C65.2235 42.7199 72.034 36.2907 72.034 36.2907C87.7893 42.9516 93.7117 29.8368 95.7185 22.6285C96.2718 20.7296 96.3135 18.7171 95.8394 16.7967C95.3652 14.8763 94.3922 13.1167 93.0198 11.6978C87.9365 6.60965 80.1398 8.79382 76.8671 11.8605C72.6179 15.8344 64.1097 18.3342 64.1097 18.3342C48.6733 2.82311 34.5077 6.99424 28.129 10.2384C25.9498 11.3568 24.242 13.2234 23.3156 15.4992L22.3686 17.8214L7.15791 15.4647C1.00494 14.5821 4.32676 24.5908 4.32676 24.5908C3.97604 26.4332 4.07688 28.3336 4.62057 30.1281C5.16426 31.9225 6.13447 33.557 7.4474 34.8904C5.9754 44.8992 28.6442 54.3211 28.6442 54.3211C28.2075 56.8258 21.5099 66.5288 21.5099 66.5288C11.8438 77.7159 17.7024 98.1721 17.7024 98.1721C7.5946 109.211 23.0997 136.136 23.0997 136.136C8.74767 133.045 6.99108 138.636 6.99108 138.636C0.401416 142.319 8.01658 144.819 8.01658 144.819L21.0291 144.508" stroke="#D4E5FF" stroke-width="1.6" stroke-miterlimit="10"/>
</g>
<g style="mix-blend-mode:hard-light" filter="url(#filter12_f_599_1329)">
<mask id="path-35-inside-1_599_1329" fill="white">
<path d="M43.592 99.8581C44.8772 107.433 45.4081 115.118 45.1769 122.799C45.0702 125.336 44.7981 127.862 44.3624 130.362C44.3329 131.842 44.2201 133.217 44.0533 134.637C43.4497 138.927 42.5813 143.418 39.6814 146.835L39.858 146.554C39.6523 147.043 39.6026 147.584 39.7158 148.102C39.8728 148.482 40.4076 148.482 40.7805 148.511L41.07 148.541L41.2319 148.625C42.7873 149.349 44.9315 150.281 46.4968 149.202C49.1317 150.745 52.3848 151.174 53.4397 147.599C54.0656 145.188 54.2943 142.689 54.1168 140.204C53.9942 138.148 54.7204 135.983 55.5447 134.198C57.7282 129.436 60.7065 125.2 62.8802 120.482C66.1922 113.476 67.9929 105.898 69.6219 98.3198C69.0114 103.48 68.0275 108.588 66.6779 113.604C65.9631 116.12 65.0963 118.59 64.0823 121C62.0755 125.772 59.2149 130.18 57.1394 134.874C56.6359 135.985 56.2654 137.151 56.0354 138.35C55.8587 139.577 56.0354 140.815 56.0354 142.082C56.0393 143.432 55.926 144.78 55.6968 146.11C55.5536 147.553 55.0691 148.941 54.2837 150.158C52.4437 152.934 48.5772 152.623 46.0061 151.144H46.9874C45.2995 152.022 43.4595 151.543 41.8158 150.957C41.3124 150.766 40.8209 150.546 40.3438 150.296L40.7952 150.41C38.0426 150.439 37.1839 148.107 38.1358 145.795L38.1898 145.652L38.3173 145.514C41.7128 141.461 42.434 135.357 42.8413 130.229C44.804 120.26 44.3427 109.936 43.6067 99.8433L43.592 99.8581Z"/>
</mask>
<path d="M43.592 99.8581L41.9198 98.1918L41.0611 99.0536L41.2646 100.253L43.592 99.8581ZM45.1769 122.799L47.5355 122.898L47.5361 122.884L47.5365 122.87L45.1769 122.799ZM44.3624 130.362L42.0367 129.957L42.0057 130.135L42.0021 130.316L44.3624 130.362ZM44.0533 134.637L46.3909 134.966L46.3947 134.939L46.3978 134.913L44.0533 134.637ZM39.6814 146.835L37.6827 145.579L41.4813 148.363L39.6814 146.835ZM39.858 146.554L42.0338 147.47L37.8593 145.298L39.858 146.554ZM39.7158 148.102L37.4094 148.606L37.4541 148.81L37.5343 149.004L39.7158 148.102ZM40.7805 148.511L41.0205 146.163L40.9939 146.16L40.9672 146.158L40.7805 148.511ZM41.07 148.541L42.1551 146.444L41.7565 146.238L41.31 146.192L41.07 148.541ZM41.2319 148.625L40.1468 150.721L40.1904 150.744L40.2348 150.764L41.2319 148.625ZM46.4968 149.202L47.6898 147.165L46.3932 146.405L45.1563 147.258L46.4968 149.202ZM53.4397 147.599L55.7039 148.267L55.7149 148.23L55.7247 148.192L53.4397 147.599ZM54.1168 140.204L51.7603 140.344L51.7612 140.358L51.7621 140.372L54.1168 140.204ZM55.5447 134.198L57.6879 135.188L57.6906 135.182L55.5447 134.198ZM62.8802 120.482L60.7459 119.473L60.7409 119.484L60.736 119.494L62.8802 120.482ZM69.6219 98.3198L71.9663 98.5972L67.314 97.8237L69.6219 98.3198ZM66.6779 113.604L68.9487 114.249L68.9533 114.233L68.9576 114.217L66.6779 113.604ZM64.0823 121L61.9064 120.084L61.9062 120.085L64.0823 121ZM57.1394 134.874L59.2895 135.848L59.294 135.838L59.2984 135.829L57.1394 134.874ZM56.0354 138.35L53.717 137.905L53.7066 137.959L53.6987 138.014L56.0354 138.35ZM56.0354 142.082H53.6746L53.6747 142.089L56.0354 142.082ZM55.6968 146.11L53.3704 145.709L53.356 145.793L53.3476 145.877L55.6968 146.11ZM54.2837 150.158L56.2513 151.462L56.2593 151.45L56.2671 151.438L54.2837 150.158ZM46.0061 151.144V148.783H37.1685L44.8289 153.19L46.0061 151.144ZM46.9874 151.144L48.0765 153.239L46.9874 148.783V151.144ZM41.8158 150.957L40.9806 153.165L41.0014 153.173L41.0222 153.18L41.8158 150.957ZM40.3438 150.296L40.9191 148.007L39.2493 152.388L40.3438 150.296ZM40.7952 150.41L40.8206 152.77L41.3705 148.12L40.7952 150.41ZM38.1358 145.795L40.3188 146.693L40.332 146.661L40.3444 146.628L38.1358 145.795ZM38.1898 145.652L36.4559 144.05L36.1437 144.387L35.9812 144.818L38.1898 145.652ZM38.3173 145.514L40.0512 147.116L40.0901 147.074L40.1269 147.03L38.3173 145.514ZM42.8413 130.229L40.5251 129.773L40.4988 129.907L40.488 130.042L42.8413 130.229ZM43.6067 99.8433L45.9612 99.6716L45.585 94.5135L41.9345 98.177L43.6067 99.8433ZM41.2646 100.253C42.5236 107.674 43.0437 115.203 42.8172 122.728L47.5365 122.87C47.7724 115.033 47.2307 107.192 45.9195 99.4633L41.2646 100.253ZM42.8183 122.7C42.7159 125.134 42.4548 127.558 42.0367 129.957L46.688 130.768C47.1414 128.166 47.4245 125.537 47.5355 122.898L42.8183 122.7ZM42.0021 130.316C41.9746 131.7 41.869 132.997 41.7087 134.362L46.3978 134.913C46.5712 133.437 46.6913 131.983 46.7226 130.409L42.0021 130.316ZM41.7156 134.308C41.1099 138.613 40.2942 142.465 37.8815 145.307L41.4813 148.363C44.8683 144.372 45.7896 139.24 46.3909 134.966L41.7156 134.308ZM41.6801 148.091L41.8567 147.81L37.8593 145.298L37.6827 145.579L41.6801 148.091ZM37.6822 145.638C37.2876 146.575 37.1925 147.612 37.4094 148.606L42.0221 147.599C42.0127 147.555 42.0169 147.51 42.0338 147.47L37.6822 145.638ZM37.5343 149.004C38.0291 150.201 39.0795 150.596 39.582 150.725C40.0389 150.842 40.5774 150.863 40.5938 150.865L40.9672 146.158C40.779 146.143 40.7979 146.147 40.7047 146.138C40.6533 146.133 40.683 146.133 40.7523 146.151C40.818 146.168 41.0105 146.223 41.2366 146.379C41.4886 146.553 41.7428 146.826 41.8972 147.2L37.5343 149.004ZM40.5405 150.86L40.83 150.889L41.31 146.192L41.0205 146.163L40.5405 150.86ZM39.9849 150.637L40.1468 150.721L42.317 146.528L42.1551 146.444L39.9849 150.637ZM40.2348 150.764C40.9992 151.121 42.1565 151.652 43.3896 151.903C44.6409 152.158 46.3162 152.194 47.8373 151.145L45.1563 147.258C45.1121 147.289 44.9327 147.399 44.3317 147.277C43.7126 147.151 43.02 146.853 42.229 146.485L40.2348 150.764ZM45.3037 151.239C46.8219 152.128 48.8273 152.895 50.8306 152.665C51.885 152.543 52.944 152.141 53.8463 151.341C54.739 150.55 55.343 149.49 55.7039 148.267L51.1756 146.931C51.0089 147.496 50.8107 147.723 50.7144 147.808C50.6278 147.885 50.511 147.949 50.2908 147.974C49.7452 148.037 48.8065 147.819 47.6898 147.165L45.3037 151.239ZM55.7247 148.192C56.415 145.532 56.6673 142.777 56.4716 140.035L51.7621 140.372C51.9214 142.602 51.7161 144.843 51.1547 147.006L55.7247 148.192ZM56.4734 140.063C56.3857 138.594 56.9161 136.859 57.6879 135.188L53.4015 133.209C52.5246 135.107 51.6027 137.702 51.7603 140.344L56.4734 140.063ZM57.6906 135.182C58.7301 132.915 59.966 130.757 61.263 128.5C62.5428 126.272 63.8855 123.942 65.0243 121.47L60.736 119.494C59.7011 121.741 58.4678 123.887 57.1692 126.147C55.8878 128.378 54.5428 130.719 53.3987 133.215L57.6906 135.182ZM65.0144 121.491C68.4544 114.214 70.3005 106.396 71.9299 98.816L67.314 97.8237C65.6854 105.4 63.9299 112.738 60.7459 119.473L65.0144 121.491ZM67.2776 98.0424C66.6805 103.089 65.7182 108.085 64.3983 112.991L68.9576 114.217C70.3368 109.091 71.3423 103.87 71.9663 98.5972L67.2776 98.0424ZM64.4071 112.959C63.7184 115.383 62.8832 117.762 61.9064 120.084L66.2582 121.915C67.3093 119.417 68.2078 116.857 68.9487 114.249L64.4071 112.959ZM61.9062 120.085C60.9516 122.355 59.7853 124.558 58.5561 126.851C57.3435 129.112 56.0618 131.473 54.9803 133.919L59.2984 135.829C60.2924 133.581 61.4788 131.391 62.717 129.082C63.9387 126.804 65.2062 124.417 66.2584 121.915L61.9062 120.085ZM54.9892 133.899C54.409 135.179 53.982 136.524 53.717 137.905L58.3537 138.795C58.5487 137.779 58.8629 136.79 59.2895 135.848L54.9892 133.899ZM53.6987 138.014C53.5801 138.838 53.5863 139.621 53.6099 140.285C53.6361 141.022 53.6747 141.498 53.6747 142.082H58.3961C58.3961 141.399 58.3463 140.623 58.3283 140.117C58.3078 139.539 58.314 139.089 58.372 138.686L53.6987 138.014ZM53.6747 142.089C53.6782 143.302 53.5764 144.514 53.3704 145.709L58.0232 146.511C58.2756 145.046 58.4004 143.562 58.396 142.075L53.6747 142.089ZM53.3476 145.877C53.2414 146.948 52.8821 147.977 52.3003 148.878L56.2671 151.438C57.2562 149.906 57.8658 148.159 58.046 146.343L53.3476 145.877ZM52.316 148.854C51.8965 149.487 51.2384 149.837 50.2879 149.89C49.2862 149.945 48.1269 149.641 47.1833 149.098L44.8289 153.19C46.4564 154.127 48.5159 154.717 50.5502 154.604C52.6357 154.488 54.8309 153.605 56.2513 151.462L52.316 148.854ZM46.0061 153.505H46.9874V148.783H46.0061V153.505ZM45.8984 149.05C45.1946 149.416 44.2579 149.322 42.6094 148.733L41.0222 153.18C42.6612 153.765 45.4045 154.628 48.0765 153.239L45.8984 149.05ZM42.651 148.749C42.2364 148.592 41.8314 148.41 41.4384 148.204L39.2493 152.388C39.8103 152.681 40.3885 152.941 40.9806 153.165L42.651 148.749ZM39.7685 152.586L40.22 152.699L41.3705 148.12L40.9191 148.007L39.7685 152.586ZM40.7699 148.049C40.4167 148.053 40.2638 147.981 40.2279 147.961C40.2016 147.946 40.1953 147.939 40.1823 147.914C40.138 147.826 40.0228 147.412 40.3188 146.693L35.9528 144.896C35.2969 146.489 35.1351 148.398 35.9703 150.047C36.8811 151.845 38.6986 152.793 40.8206 152.77L40.7699 148.049ZM40.3444 146.628L40.3983 146.485L35.9812 144.818L35.9272 144.961L40.3444 146.628ZM39.9236 147.254L40.0512 147.116L36.5835 143.912L36.4559 144.05L39.9236 147.254ZM40.1269 147.03C44.0772 142.315 44.796 135.435 45.1946 130.416L40.488 130.042C40.0721 135.279 39.3483 140.607 36.5078 143.998L40.1269 147.03ZM45.1575 130.685C47.1871 120.376 46.6978 109.772 45.9612 99.6716L41.2523 100.015C41.9877 110.1 42.4208 120.144 40.5251 129.773L45.1575 130.685ZM41.9345 98.177L41.9198 98.1918L45.2643 101.524L45.279 101.51L41.9345 98.177Z" fill="white" mask="url(#path-35-inside-1_599_1329)"/>
</g>
<g style="mix-blend-mode:hard-light" filter="url(#filter13_f_599_1329)">
<mask id="path-37-inside-2_599_1329" fill="white">
<path d="M43.592 99.8581C44.8772 107.433 45.4081 115.118 45.1769 122.799C45.0702 125.336 44.7981 127.862 44.3624 130.362C44.3329 131.842 44.2201 133.217 44.0533 134.637C43.4497 138.927 42.5813 143.418 39.6814 146.835L39.858 146.554C39.6523 147.043 39.6026 147.584 39.7158 148.102C39.8728 148.482 40.4076 148.482 40.7805 148.511L41.07 148.541L41.2319 148.625C42.7873 149.349 44.9315 150.281 46.4968 149.202C49.1317 150.745 52.3848 151.174 53.4397 147.599C54.0656 145.188 54.2943 142.689 54.1168 140.204C53.9942 138.148 54.7204 135.983 55.5447 134.198C57.7282 129.436 60.7065 125.2 62.8802 120.482C66.1922 113.476 67.9929 105.898 69.6219 98.3198C69.0114 103.48 68.0275 108.588 66.6779 113.604C65.9631 116.12 65.0963 118.59 64.0823 121C62.0755 125.772 59.2149 130.18 57.1394 134.874C56.6359 135.985 56.2654 137.151 56.0354 138.35C55.8587 139.577 56.0354 140.815 56.0354 142.082C56.0393 143.432 55.926 144.78 55.6968 146.11C55.5536 147.553 55.0691 148.941 54.2837 150.158C52.4437 152.934 48.5772 152.623 46.0061 151.144H46.9874C45.2995 152.022 43.4595 151.543 41.8158 150.957C41.3124 150.766 40.8209 150.546 40.3438 150.296L40.7952 150.41C38.0426 150.439 37.1839 148.107 38.1358 145.795L38.1898 145.652L38.3173 145.514C41.7128 141.461 42.434 135.357 42.8413 130.229C44.804 120.26 44.3427 109.936 43.6067 99.8433L43.592 99.8581Z"/>
</mask>
<path d="M43.592 99.8581L41.4053 97.6791L40.2823 98.806L40.5484 100.374L43.592 99.8581ZM45.1769 122.799L48.2612 122.929L48.262 122.911L48.2626 122.892L45.1769 122.799ZM44.3624 130.362L41.3211 129.833L41.2806 130.065L41.2759 130.301L44.3624 130.362ZM44.0533 134.637L47.1102 135.067L47.1151 135.032L47.1192 134.997L44.0533 134.637ZM39.6814 146.835L37.0677 145.192L42.0351 148.833L39.6814 146.835ZM39.858 146.554L42.7033 147.752L37.2444 144.911L39.858 146.554ZM39.7158 148.102L36.6997 148.761L36.7582 149.028L36.863 149.282L39.7158 148.102ZM40.7805 148.511L41.0943 145.44L41.0595 145.437L41.0246 145.434L40.7805 148.511ZM41.07 148.541L42.489 145.799L41.9677 145.529L41.3838 145.47L41.07 148.541ZM41.2319 148.625L39.8129 151.366L39.8699 151.396L39.928 151.423L41.2319 148.625ZM46.4968 149.202L48.0569 146.538L46.3613 145.545L44.7438 146.66L46.4968 149.202ZM53.4397 147.599L56.4005 148.473L56.415 148.424L56.4278 148.375L53.4397 147.599ZM54.1168 140.204L51.0353 140.387L51.0363 140.405L51.0376 140.423L54.1168 140.204ZM55.5447 134.198L58.3473 135.493L58.3509 135.485L55.5447 134.198ZM62.8802 120.482L60.0892 119.163L60.0827 119.176L60.0763 119.19L62.8802 120.482ZM69.6219 98.3198L72.6876 98.6826L66.6038 97.671L69.6219 98.3198ZM66.6779 113.604L69.6475 114.448L69.6534 114.427L69.659 114.406L66.6779 113.604ZM64.0823 121L61.2368 119.802L61.2366 119.803L64.0823 121ZM57.1394 134.874L59.9511 136.148L59.957 136.135L59.9627 136.122L57.1394 134.874ZM56.0354 138.35L53.0036 137.768L52.99 137.839L52.9798 137.91L56.0354 138.35ZM56.0354 142.082H52.9483L52.9483 142.091L56.0354 142.082ZM55.6968 146.11L52.6545 145.586L52.6357 145.695L52.6248 145.805L55.6968 146.11ZM54.2837 150.158L56.8568 151.864L56.8671 151.848L56.8773 151.832L54.2837 150.158ZM46.0061 151.144V148.057H34.4492L44.4667 153.82L46.0061 151.144ZM46.9874 151.144L48.4116 153.883L46.9874 148.057V151.144ZM41.8158 150.957L40.7237 153.844L40.7508 153.854L40.778 153.864L41.8158 150.957ZM40.3438 150.296L41.0961 147.302L38.9125 153.031L40.3438 150.296ZM40.7952 150.41L40.8284 153.496L41.5475 147.415L40.7952 150.41ZM38.1358 145.795L40.9905 146.97L41.0078 146.928L41.0239 146.885L38.1358 145.795ZM38.1898 145.652L35.9224 143.557L35.5141 143.999L35.3017 144.561L38.1898 145.652ZM38.3173 145.514L40.5847 147.609L40.6356 147.554L40.6837 147.496L38.3173 145.514ZM42.8413 130.229L39.8124 129.633L39.778 129.808L39.7639 129.985L42.8413 130.229ZM43.6067 99.8433L46.6856 99.6188L46.1937 92.8736L41.42 97.6643L43.6067 99.8433ZM40.5484 100.374C41.7994 107.748 42.3163 115.229 42.0912 122.706L48.2626 122.892C48.4999 115.007 47.9549 107.118 46.6356 99.3418L40.5484 100.374ZM42.0925 122.67C41.9915 125.072 41.7338 127.464 41.3211 129.833L47.4036 130.892C47.8624 128.26 48.1489 125.599 48.2612 122.929L42.0925 122.67ZM41.2759 130.301C41.2489 131.657 41.1456 132.93 40.9873 134.277L47.1192 134.997C47.2946 133.505 47.4169 132.027 47.4488 130.424L41.2759 130.301ZM40.9963 134.207C40.3899 138.517 39.5905 142.171 37.3277 144.837L42.0351 148.833C45.572 144.665 46.5095 139.337 47.1102 135.067L40.9963 134.207ZM42.2951 148.478L42.4717 148.197L37.2444 144.911L37.0677 145.192L42.2951 148.478ZM37.0128 145.356C36.5601 146.432 36.4509 147.621 36.6997 148.761L42.7318 147.444C42.7542 147.546 42.7445 147.654 42.7033 147.752L37.0128 145.356ZM36.863 149.282C37.4859 150.788 38.8064 151.276 39.402 151.429C39.7234 151.511 40.0085 151.544 40.1836 151.561C40.2759 151.57 40.3592 151.576 40.4168 151.58C40.4877 151.585 40.5076 151.586 40.5364 151.589L41.0246 145.434C40.8072 145.417 40.8638 145.424 40.7742 145.415C40.7392 145.412 40.8109 145.416 40.9323 145.447C41.1281 145.497 42.1026 145.796 42.5685 146.922L36.863 149.282ZM40.4667 151.582L40.7562 151.612L41.3838 145.47L41.0943 145.44L40.4667 151.582ZM39.651 151.282L39.8129 151.366L42.6509 145.883L42.489 145.799L39.651 151.282ZM39.928 151.423C40.6884 151.777 41.9171 152.344 43.2447 152.615C44.596 152.89 46.5014 152.949 48.2497 151.743L44.7438 146.66C44.9269 146.534 44.9776 146.667 44.4767 146.565C43.952 146.458 43.3309 146.197 42.5358 145.826L39.928 151.423ZM44.9366 151.865C46.5166 152.791 48.6861 153.643 50.9137 153.386C52.0964 153.25 53.3003 152.796 54.3281 151.885C55.3434 150.985 56.0098 149.797 56.4005 148.473L50.4789 146.725C50.3422 147.189 50.2063 147.288 50.2326 147.264C50.2714 147.23 50.2996 147.242 50.2078 147.253C50.0825 147.267 49.8199 147.261 49.4074 147.141C49.0031 147.023 48.5395 146.82 48.0569 146.538L44.9366 151.865ZM56.4278 148.375C57.1379 145.638 57.3974 142.804 57.1961 139.984L51.0376 140.423C51.1912 142.575 50.9932 144.737 50.4516 146.824L56.4278 148.375ZM57.1984 140.02C57.1215 138.731 57.5918 137.129 58.3473 135.493L52.7421 132.904C51.849 134.838 50.8668 137.564 51.0353 140.387L57.1984 140.02ZM58.3509 135.485C59.3743 133.253 60.5934 131.123 61.8928 128.861C63.1697 126.639 64.5293 124.28 65.684 121.774L60.0763 119.19C59.0574 121.402 57.8409 123.52 56.5394 125.786C55.2604 128.012 53.8986 130.381 52.7385 132.912L58.3509 135.485ZM65.6711 121.801C69.1505 114.441 71.0105 106.549 72.6401 98.9686L66.6038 97.671C64.9754 105.246 63.2338 112.511 60.0892 119.163L65.6711 121.801ZM66.5563 97.9571C65.9633 102.969 65.0076 107.93 63.6969 112.802L69.659 114.406C71.0473 109.246 72.0596 103.991 72.6876 98.6826L66.5563 97.9571ZM63.7084 112.76C63.0277 115.156 62.2023 117.508 61.2368 119.802L66.9278 122.197C67.9902 119.672 68.8985 117.084 69.6475 114.448L63.7084 112.76ZM61.2366 119.803C60.297 122.038 59.1463 124.213 57.916 126.507C56.7073 128.761 55.411 131.149 54.316 133.625L59.9627 136.122C60.9432 133.905 62.115 131.742 63.3572 129.425C64.5777 127.149 65.8608 124.734 66.928 122.196L61.2366 119.803ZM54.3276 133.599C53.7238 134.932 53.2794 136.331 53.0036 137.768L59.0671 138.932C59.2513 137.972 59.5481 137.037 59.9511 136.148L54.3276 133.599ZM52.9798 137.91C52.8518 138.799 52.8599 139.633 52.884 140.311C52.9114 141.083 52.9483 141.513 52.9483 142.082H59.1224C59.1224 141.384 59.0709 140.562 59.0542 140.091C59.0342 139.526 59.0422 139.128 59.091 138.789L52.9798 137.91ZM52.9483 142.091C52.9517 143.262 52.8534 144.432 52.6545 145.586L58.739 146.634C58.9986 145.128 59.1268 143.602 59.1224 142.073L52.9483 142.091ZM52.6248 145.805C52.53 146.761 52.2091 147.68 51.69 148.484L56.8773 151.832C57.9291 150.203 58.5773 148.345 58.7688 146.415L52.6248 145.805ZM51.7106 148.452C51.445 148.853 51.0234 149.121 50.2476 149.164C49.4047 149.211 48.3839 148.951 47.5455 148.468L44.4667 153.82C46.1994 154.817 48.3974 155.451 50.5905 155.329C52.8507 155.203 55.2823 154.239 56.8568 151.864L51.7106 148.452ZM46.0061 154.231H46.9874V148.057H46.0061V154.231ZM45.5633 148.405C45.3704 148.505 45.1165 148.568 44.6768 148.526C44.1924 148.48 43.6138 148.321 42.8536 148.049L40.778 153.864C42.4155 154.449 45.4368 155.43 48.4116 153.883L45.5633 148.405ZM42.908 148.069C42.5207 147.923 42.1424 147.753 41.7751 147.561L38.9125 153.031C39.4993 153.338 40.1042 153.61 40.7237 153.844L42.908 148.069ZM39.5915 153.29L40.043 153.404L41.5475 147.415L41.0961 147.302L39.5915 153.29ZM40.762 147.323C40.5119 147.325 40.4874 147.274 40.5796 147.325C40.623 147.349 40.6752 147.387 40.7253 147.44C40.775 147.492 40.8091 147.544 40.8304 147.586C40.8719 147.668 40.8469 147.673 40.8492 147.554C40.8514 147.436 40.8817 147.234 40.9905 146.97L35.2811 144.619C34.5699 146.347 34.3654 148.485 35.3223 150.375C36.378 152.46 38.477 153.522 40.8284 153.496L40.762 147.323ZM41.0239 146.885L41.0779 146.742L35.3017 144.561L35.2477 144.704L41.0239 146.885ZM40.4571 147.747L40.5847 147.609L36.05 143.419L35.9224 143.557L40.4571 147.747ZM40.6837 147.496C44.8048 142.577 45.5227 135.459 45.9187 130.474L39.7639 129.985C39.3454 135.255 38.6208 140.344 35.951 143.531L40.6837 147.496ZM45.8702 130.826C47.9204 120.412 47.4224 109.721 46.6856 99.6188L40.5279 100.068C41.2631 110.15 41.6876 120.108 39.8124 129.633L45.8702 130.826ZM41.42 97.6643L41.4053 97.6791L45.7788 102.037L45.7935 102.022L41.42 97.6643Z" fill="white" mask="url(#path-37-inside-2_599_1329)"/>
</g>
<g style="mix-blend-mode:hard-light" filter="url(#filter14_ddi_599_1329)">
<mask id="path-39-inside-3_599_1329" fill="white">
<path d="M43.592 99.8581C44.8772 107.433 45.4081 115.118 45.1769 122.799C45.0702 125.336 44.7981 127.862 44.3624 130.362C44.3329 131.842 44.2201 133.217 44.0533 134.637C43.4497 138.927 42.5813 143.418 39.6814 146.835L39.858 146.554C39.6523 147.043 39.6026 147.584 39.7158 148.102C39.8728 148.482 40.4076 148.482 40.7805 148.511L41.07 148.541L41.2319 148.625C42.7873 149.349 44.9315 150.281 46.4968 149.202C49.1317 150.745 52.3848 151.174 53.4397 147.599C54.0656 145.188 54.2943 142.689 54.1168 140.204C53.9942 138.148 54.7204 135.983 55.5447 134.198C57.7282 129.436 60.7065 125.2 62.8802 120.482C66.1922 113.476 67.9929 105.898 69.6219 98.3198C69.0114 103.48 68.0275 108.588 66.6779 113.604C65.9631 116.12 65.0963 118.59 64.0823 121C62.0755 125.772 59.2149 130.18 57.1394 134.874C56.6359 135.985 56.2654 137.151 56.0354 138.35C55.8587 139.577 56.0354 140.815 56.0354 142.082C56.0393 143.432 55.926 144.78 55.6968 146.11C55.5536 147.553 55.0691 148.941 54.2837 150.158C52.4437 152.934 48.5772 152.623 46.0061 151.144H46.9874C45.2995 152.022 43.4595 151.543 41.8158 150.957C41.3124 150.766 40.8209 150.546 40.3438 150.296L40.7952 150.41C38.0426 150.439 37.1839 148.107 38.1358 145.795L38.1898 145.652L38.3173 145.514C41.7128 141.461 42.434 135.357 42.8413 130.229C44.804 120.26 44.3427 109.936 43.6067 99.8433L43.592 99.8581Z"/>
</mask>
<path d="M43.592 99.8581L41.9198 98.1918L41.0611 99.0536L41.2646 100.253L43.592 99.8581ZM45.1769 122.799L47.5355 122.898L47.5361 122.884L47.5365 122.87L45.1769 122.799ZM44.3624 130.362L42.0367 129.957L42.0057 130.135L42.0021 130.316L44.3624 130.362ZM44.0533 134.637L46.3909 134.966L46.3947 134.939L46.3978 134.913L44.0533 134.637ZM39.6814 146.835L37.6827 145.579L41.4813 148.363L39.6814 146.835ZM39.858 146.554L42.0338 147.47L37.8593 145.298L39.858 146.554ZM39.7158 148.102L37.4094 148.606L37.4541 148.81L37.5343 149.004L39.7158 148.102ZM40.7805 148.511L41.0205 146.163L40.9939 146.16L40.9672 146.158L40.7805 148.511ZM41.07 148.541L42.1551 146.444L41.7565 146.238L41.31 146.192L41.07 148.541ZM41.2319 148.625L40.1468 150.721L40.1904 150.744L40.2348 150.764L41.2319 148.625ZM46.4968 149.202L47.6898 147.165L46.3932 146.405L45.1563 147.258L46.4968 149.202ZM53.4397 147.599L55.7039 148.267L55.7149 148.23L55.7247 148.192L53.4397 147.599ZM54.1168 140.204L51.7603 140.344L51.7612 140.358L51.7621 140.372L54.1168 140.204ZM55.5447 134.198L57.6879 135.188L57.6906 135.182L55.5447 134.198ZM62.8802 120.482L60.7459 119.473L60.7409 119.484L60.736 119.494L62.8802 120.482ZM69.6219 98.3198L71.9663 98.5972L67.314 97.8237L69.6219 98.3198ZM66.6779 113.604L68.9487 114.249L68.9533 114.233L68.9576 114.217L66.6779 113.604ZM64.0823 121L61.9064 120.084L61.9062 120.085L64.0823 121ZM57.1394 134.874L59.2895 135.848L59.294 135.838L59.2984 135.829L57.1394 134.874ZM56.0354 138.35L53.717 137.905L53.7066 137.959L53.6987 138.014L56.0354 138.35ZM56.0354 142.082H53.6746L53.6747 142.089L56.0354 142.082ZM55.6968 146.11L53.3704 145.709L53.356 145.793L53.3476 145.877L55.6968 146.11ZM54.2837 150.158L56.2513 151.462L56.2593 151.45L56.2671 151.438L54.2837 150.158ZM46.0061 151.144V148.783H37.1685L44.8289 153.19L46.0061 151.144ZM46.9874 151.144L48.0765 153.239L46.9874 148.783V151.144ZM41.8158 150.957L40.9806 153.165L41.0014 153.173L41.0222 153.18L41.8158 150.957ZM40.3438 150.296L40.9191 148.007L39.2493 152.388L40.3438 150.296ZM40.7952 150.41L40.8206 152.77L41.3705 148.12L40.7952 150.41ZM38.1358 145.795L40.3188 146.693L40.332 146.661L40.3444 146.628L38.1358 145.795ZM38.1898 145.652L36.4559 144.05L36.1437 144.387L35.9812 144.818L38.1898 145.652ZM38.3173 145.514L40.0512 147.116L40.0901 147.074L40.1269 147.03L38.3173 145.514ZM42.8413 130.229L40.5251 129.773L40.4988 129.907L40.488 130.042L42.8413 130.229ZM43.6067 99.8433L45.9612 99.6716L45.585 94.5135L41.9345 98.177L43.6067 99.8433ZM41.2646 100.253C42.5236 107.674 43.0437 115.203 42.8172 122.728L47.5365 122.87C47.7724 115.033 47.2307 107.192 45.9195 99.4633L41.2646 100.253ZM42.8183 122.7C42.7159 125.134 42.4548 127.558 42.0367 129.957L46.688 130.768C47.1414 128.166 47.4245 125.537 47.5355 122.898L42.8183 122.7ZM42.0021 130.316C41.9746 131.7 41.869 132.997 41.7087 134.362L46.3978 134.913C46.5712 133.437 46.6913 131.983 46.7226 130.409L42.0021 130.316ZM41.7156 134.308C41.1099 138.613 40.2942 142.465 37.8815 145.307L41.4813 148.363C44.8683 144.372 45.7896 139.24 46.3909 134.966L41.7156 134.308ZM41.6801 148.091L41.8567 147.81L37.8593 145.298L37.6827 145.579L41.6801 148.091ZM37.6822 145.638C37.2876 146.575 37.1925 147.612 37.4094 148.606L42.0221 147.599C42.0127 147.555 42.0169 147.51 42.0338 147.47L37.6822 145.638ZM37.5343 149.004C38.0291 150.201 39.0795 150.596 39.582 150.725C40.0389 150.842 40.5774 150.863 40.5938 150.865L40.9672 146.158C40.779 146.143 40.7979 146.147 40.7047 146.138C40.6533 146.133 40.683 146.133 40.7523 146.151C40.818 146.168 41.0105 146.223 41.2366 146.379C41.4886 146.553 41.7428 146.826 41.8972 147.2L37.5343 149.004ZM40.5405 150.86L40.83 150.889L41.31 146.192L41.0205 146.163L40.5405 150.86ZM39.9849 150.637L40.1468 150.721L42.317 146.528L42.1551 146.444L39.9849 150.637ZM40.2348 150.764C40.9992 151.121 42.1565 151.652 43.3896 151.903C44.6409 152.158 46.3162 152.194 47.8373 151.145L45.1563 147.258C45.1121 147.289 44.9327 147.399 44.3317 147.277C43.7126 147.151 43.02 146.853 42.229 146.485L40.2348 150.764ZM45.3037 151.239C46.8219 152.128 48.8273 152.895 50.8306 152.665C51.885 152.543 52.944 152.141 53.8463 151.341C54.739 150.55 55.343 149.49 55.7039 148.267L51.1756 146.931C51.0089 147.496 50.8107 147.723 50.7144 147.808C50.6278 147.885 50.511 147.949 50.2908 147.974C49.7452 148.037 48.8065 147.819 47.6898 147.165L45.3037 151.239ZM55.7247 148.192C56.415 145.532 56.6673 142.777 56.4716 140.035L51.7621 140.372C51.9214 142.602 51.7161 144.843 51.1547 147.006L55.7247 148.192ZM56.4734 140.063C56.3857 138.594 56.9161 136.859 57.6879 135.188L53.4015 133.209C52.5246 135.107 51.6027 137.702 51.7603 140.344L56.4734 140.063ZM57.6906 135.182C58.7301 132.915 59.966 130.757 61.263 128.5C62.5428 126.272 63.8855 123.942 65.0243 121.47L60.736 119.494C59.7011 121.741 58.4678 123.887 57.1692 126.147C55.8878 128.378 54.5428 130.719 53.3987 133.215L57.6906 135.182ZM65.0144 121.491C68.4544 114.214 70.3005 106.396 71.9299 98.816L67.314 97.8237C65.6854 105.4 63.9299 112.738 60.7459 119.473L65.0144 121.491ZM67.2776 98.0424C66.6805 103.089 65.7182 108.085 64.3983 112.991L68.9576 114.217C70.3368 109.091 71.3423 103.87 71.9663 98.5972L67.2776 98.0424ZM64.4071 112.959C63.7184 115.383 62.8832 117.762 61.9064 120.084L66.2582 121.915C67.3093 119.417 68.2078 116.857 68.9487 114.249L64.4071 112.959ZM61.9062 120.085C60.9516 122.355 59.7853 124.558 58.5561 126.851C57.3435 129.112 56.0618 131.473 54.9803 133.919L59.2984 135.829C60.2924 133.581 61.4788 131.391 62.717 129.082C63.9387 126.804 65.2062 124.417 66.2584 121.915L61.9062 120.085ZM54.9892 133.899C54.409 135.179 53.982 136.524 53.717 137.905L58.3537 138.795C58.5487 137.779 58.8629 136.79 59.2895 135.848L54.9892 133.899ZM53.6987 138.014C53.5801 138.838 53.5863 139.621 53.6099 140.285C53.6361 141.022 53.6747 141.498 53.6747 142.082H58.3961C58.3961 141.399 58.3463 140.623 58.3283 140.117C58.3078 139.539 58.314 139.089 58.372 138.686L53.6987 138.014ZM53.6747 142.089C53.6782 143.302 53.5764 144.514 53.3704 145.709L58.0232 146.511C58.2756 145.046 58.4004 143.562 58.396 142.075L53.6747 142.089ZM53.3476 145.877C53.2414 146.948 52.8821 147.977 52.3003 148.878L56.2671 151.438C57.2562 149.906 57.8658 148.159 58.046 146.343L53.3476 145.877ZM52.316 148.854C51.8965 149.487 51.2384 149.837 50.2879 149.89C49.2862 149.945 48.1269 149.641 47.1833 149.098L44.8289 153.19C46.4564 154.127 48.5159 154.717 50.5502 154.604C52.6357 154.488 54.8309 153.605 56.2513 151.462L52.316 148.854ZM46.0061 153.505H46.9874V148.783H46.0061V153.505ZM45.8984 149.05C45.1946 149.416 44.2579 149.322 42.6094 148.733L41.0222 153.18C42.6612 153.765 45.4045 154.628 48.0765 153.239L45.8984 149.05ZM42.651 148.749C42.2364 148.592 41.8314 148.41 41.4384 148.204L39.2493 152.388C39.8103 152.681 40.3885 152.941 40.9806 153.165L42.651 148.749ZM39.7685 152.586L40.22 152.699L41.3705 148.12L40.9191 148.007L39.7685 152.586ZM40.7699 148.049C40.4167 148.053 40.2638 147.981 40.2279 147.961C40.2016 147.946 40.1953 147.939 40.1823 147.914C40.138 147.826 40.0228 147.412 40.3188 146.693L35.9528 144.896C35.2969 146.489 35.1351 148.398 35.9703 150.047C36.8811 151.845 38.6986 152.793 40.8206 152.77L40.7699 148.049ZM40.3444 146.628L40.3983 146.485L35.9812 144.818L35.9272 144.961L40.3444 146.628ZM39.9236 147.254L40.0512 147.116L36.5835 143.912L36.4559 144.05L39.9236 147.254ZM40.1269 147.03C44.0772 142.315 44.796 135.435 45.1946 130.416L40.488 130.042C40.0721 135.279 39.3483 140.607 36.5078 143.998L40.1269 147.03ZM45.1575 130.685C47.1871 120.376 46.6978 109.772 45.9612 99.6716L41.2523 100.015C41.9877 110.1 42.4208 120.144 40.5251 129.773L45.1575 130.685ZM41.9345 98.177L41.9198 98.1918L45.2643 101.524L45.279 101.51L41.9345 98.177Z" fill="white" fill-opacity="0.2" mask="url(#path-39-inside-3_599_1329)"/>
</g>
<g filter="url(#filter15_f_599_1329)">
<path d="M43.5621 130.328C43.7542 129.349 43.9232 128.367 44.0711 127.381C43.9536 128.337 43.8121 129.289 43.6468 130.238L43.6372 130.292L43.6361 130.348C43.6073 131.795 43.4971 133.144 43.3328 134.544C42.7398 138.757 41.9071 142.969 39.2773 146.185L39.2431 146.167L39.0664 146.448L39.1093 146.48C38.9133 147.05 38.8769 147.665 39.0061 148.257L39.0199 148.32L39.0445 148.38C39.2511 148.879 39.6941 149.067 39.9871 149.142C40.2231 149.202 40.4904 149.22 40.6484 149.23C40.6738 149.232 40.6963 149.233 40.7155 149.235L40.8588 149.249L40.898 149.27L40.9114 149.277L40.9251 149.283C41.6987 149.644 42.6951 150.094 43.7157 150.302C44.0329 150.366 44.3627 150.409 44.6967 150.418H43.2868L43.9693 150.81C43.3518 150.702 42.7156 150.506 42.0664 150.275C41.6907 150.133 41.322 149.972 40.9616 149.795L40.9722 149.705L40.5208 149.592L40.489 149.675C39.5308 149.611 38.9925 149.182 38.7243 148.652C38.4062 148.024 38.3869 147.093 38.8075 146.071L38.8116 146.061L38.8154 146.051L38.8193 146.041L38.8508 146.007L38.8628 145.994L38.8741 145.98C42.4306 141.735 43.1569 135.416 43.5621 130.328ZM44.9301 150.418C45.4601 150.404 45.996 150.296 46.5055 150.039C47.8003 150.733 49.279 151.198 50.6438 151.041C51.4094 150.953 52.1422 150.668 52.7622 150.118C53.3792 149.571 53.8428 148.8 54.1364 147.805L54.1398 147.793L54.1428 147.782C54.7881 145.295 55.0242 142.719 54.8417 140.156C54.731 138.282 55.3966 136.251 56.2041 134.503L56.205 134.501C57.2806 132.155 58.5543 129.934 59.8459 127.685L59.8811 127.624C60.4289 126.671 60.9798 125.712 61.5166 124.74C61.0236 125.703 60.5123 126.661 59.9965 127.623C59.9269 127.753 59.8573 127.882 59.7877 128.012C58.634 130.162 57.4676 132.336 56.4764 134.577C55.9501 135.739 55.5626 136.959 55.322 138.213L55.3188 138.229L55.3164 138.246C55.2188 138.925 55.2207 139.592 55.2432 140.227C55.2511 140.45 55.2612 140.664 55.2712 140.873C55.2905 141.282 55.309 141.674 55.309 142.082L55.309 142.084C55.3128 143.392 55.203 144.698 54.981 145.987L54.9765 146.013L54.974 146.038C54.8423 147.366 54.3972 148.642 53.6758 149.76C52.9097 150.913 51.7207 151.447 50.3787 151.521C49.289 151.582 48.1275 151.335 47.1015 150.884L46.9874 150.418H46.0061H44.9301ZM64.0823 121C63.0229 123.519 61.7255 125.937 60.4312 128.349C59.2739 130.506 58.1192 132.658 57.1394 134.874C56.6359 135.985 56.2654 137.151 56.0354 138.35L64.0823 121Z" stroke="#DAF4FF" stroke-width="1.45274"/>
</g>
<g style="mix-blend-mode:hard-light" filter="url(#filter16_f_599_1329)">
<path d="M39.1911 141.556L39.6283 141.397C39.6366 141.416 39.6419 141.429 39.6436 141.432L39.2079 141.605C39.2051 141.596 39.2022 141.588 39.1993 141.58C39.1965 141.572 39.1938 141.564 39.1911 141.556ZM39.1911 141.556C39.1035 141.304 39.0078 141.055 38.9041 140.809M39.1911 141.556L38.7506 141.716C38.6524 141.682 38.5678 141.646 38.5192 141.618C38.4532 141.573 38.3536 141.491 38.3045 141.446C38.3064 141.36 38.3129 141.252 38.325 141.17C38.3434 141.113 38.3808 141.043 38.4332 140.966L38.9041 140.809M38.9041 140.809L39.3246 140.669C39.3145 140.645 39.305 140.623 39.2964 140.602C39.2963 140.602 39.2962 140.602 39.2962 140.602L39.2906 140.604L38.866 140.72C38.8723 140.735 38.8785 140.749 38.8848 140.764C38.8912 140.779 38.8977 140.794 38.9041 140.809Z" stroke="white" stroke-width="2.69022"/>
</g>
<g style="mix-blend-mode:hard-light" filter="url(#filter17_f_599_1329)">
<path d="M39.5762 141.403L39.6238 141.386C39.6346 141.412 39.6416 141.428 39.6436 141.432L39.5931 141.452C39.5928 141.451 39.5925 141.45 39.5921 141.449C39.5868 141.434 39.5815 141.419 39.5762 141.403ZM39.5762 141.403C39.4933 141.166 39.4034 140.931 39.3066 140.699M39.5762 141.403L38.207 141.901C38.1255 141.838 38.0376 141.764 37.9978 141.726C37.9685 141.695 37.9242 141.646 37.8942 141.611C37.8941 141.61 37.894 141.609 37.8939 141.608C37.8882 141.532 37.8922 141.328 37.9097 141.164L39.3066 140.699M39.3066 140.699L39.3333 140.69C39.3199 140.658 39.3075 140.628 39.2964 140.602C39.2963 140.602 39.2962 140.602 39.2962 140.602L39.2906 140.604L39.269 140.61C39.2693 140.61 39.2696 140.611 39.2699 140.612C39.2823 140.641 39.2945 140.67 39.3066 140.699Z" stroke="white" stroke-width="3.51798"/>
</g>
<g style="mix-blend-mode:hard-light" filter="url(#filter18_ddi_599_1329)">
<path d="M39.1911 141.556L39.6283 141.397C39.6366 141.416 39.6419 141.429 39.6436 141.432L39.2079 141.605C39.2051 141.596 39.2022 141.588 39.1993 141.58C39.1965 141.572 39.1938 141.564 39.1911 141.556ZM39.1911 141.556C39.1035 141.304 39.0078 141.055 38.9041 140.809M39.1911 141.556L38.7506 141.716C38.6524 141.682 38.5678 141.646 38.5192 141.618C38.4532 141.573 38.3536 141.491 38.3045 141.446C38.3064 141.36 38.3129 141.252 38.325 141.17C38.3434 141.113 38.3808 141.043 38.4332 140.966L38.9041 140.809M38.9041 140.809L39.3246 140.669C39.3145 140.645 39.305 140.623 39.2964 140.602C39.2963 140.602 39.2962 140.602 39.2962 140.602L39.2906 140.604L38.866 140.72C38.8723 140.735 38.8785 140.749 38.8848 140.764C38.8912 140.779 38.8977 140.794 38.9041 140.809Z" stroke="white" stroke-opacity="0.2" stroke-width="2.69022"/>
</g>
<g filter="url(#filter19_f_599_1329)">
<path d="M38.8586 141.212C38.8342 141.201 38.8137 141.192 38.7987 141.183C38.6836 141.109 38.6151 141.023 38.6011 141.005L38.5999 141.004C38.5624 140.957 38.5378 140.915 38.5312 140.904L39.3138 140.643C39.324 140.668 39.335 140.694 39.3466 140.722C39.129 140.859 38.9347 141.069 38.8586 141.212ZM38.8586 141.212C38.847 141.233 38.8381 141.253 38.8324 141.271C38.8204 141.351 38.8174 141.474 38.8205 141.515C38.8267 141.577 38.8389 141.625 38.8415 141.636L38.8418 141.636C38.8491 141.665 38.8565 141.688 38.8581 141.692L38.8582 141.693L39.6341 141.411C39.6193 141.376 39.5894 141.304 39.5523 141.215C39.4342 141.267 39.3122 141.306 39.2226 141.314C39.1126 141.302 38.9553 141.253 38.8586 141.212ZM22.059 124.886C21.5876 123.002 21.1624 121.108 20.7795 119.208C21.1934 121.086 21.6444 122.956 22.1364 124.816L22.1363 124.816L22.1395 124.828C22.3451 125.562 22.559 126.282 22.7709 126.995C23.3355 128.895 23.8853 130.745 24.2209 132.673C24.6968 135.466 25.0164 138.164 24.334 140.817C23.1619 141.91 22.1727 143.187 21.4049 144.597C21.0237 145.26 20.8631 146.027 20.946 146.787L20.951 146.833L20.9611 146.879C21.0901 147.455 21.4644 147.821 21.8065 148.053C22.0517 148.22 22.3317 148.349 22.5553 148.448C23.3934 149.483 24.4291 150.01 25.5629 149.974C26.1242 149.957 26.6685 149.803 27.184 149.549L27.4331 149.772C26.7861 150.109 26.1232 150.286 25.4872 150.297C24.4791 150.315 23.4567 149.919 22.5742 148.94L22.6259 148.85L22.1892 148.51L22.1079 148.592C21.8342 148.452 21.578 148.279 21.3456 148.076C20.8331 147.539 20.6362 146.985 20.6207 146.423C20.6042 145.827 20.7911 145.164 21.1464 144.457C21.8059 143.143 22.9451 141.867 23.9099 140.88L24.007 140.921L24.2768 140.477L24.1721 140.395C24.439 139.191 24.5361 137.955 24.4602 136.723C24.3296 132.991 23.3115 129.359 22.3386 125.887C22.2447 125.552 22.1512 125.218 22.059 124.886ZM28.8615 148.468H28.6982L28.7794 148.4C28.8065 148.423 28.8339 148.446 28.8615 148.468ZM30.2917 149.643L30.5134 149.426C31.2268 149.671 32.0341 149.727 32.8594 149.393L32.8605 149.392C33.7115 149.047 34.351 148.404 34.844 147.754C35.0939 147.425 35.3206 147.073 35.5261 146.732L35.6262 147.091C35.1233 147.92 34.4919 148.668 33.7705 149.184C32.8765 149.823 31.8635 150.1 30.7208 149.781L30.7157 149.779C30.5722 149.74 30.4307 149.695 30.2917 149.643ZM36.0817 146.203L35.7115 146.417C35.7509 146.349 35.7895 146.282 35.8273 146.215C35.9116 146.213 35.9966 146.209 36.0817 146.203ZM38.9779 142.634C38.8188 142.023 38.6113 141.425 38.3572 140.847C37.6619 138.179 37.1861 135.459 36.9337 132.717C37.2333 135.364 37.7304 137.986 38.4215 140.562C38.4243 140.592 38.428 140.615 38.4299 140.626C38.437 140.668 38.4459 140.7 38.4484 140.709C38.455 140.733 38.4615 140.752 38.4633 140.757C38.4755 140.793 38.4985 140.852 38.5205 140.907L38.526 140.906C38.5517 140.966 38.5891 141.056 38.6315 141.157L38.8019 141.566C38.8261 141.625 38.8472 141.675 38.8619 141.71C38.8689 141.726 38.876 141.743 38.8816 141.756L38.8817 141.756C38.882 141.757 38.8825 141.758 38.8832 141.76C39.4345 143.166 39.3273 144.31 38.8495 145.076C38.6814 145.345 38.4524 145.592 38.1575 145.8L38.3995 145.315C38.6476 145.066 38.8433 144.757 38.9618 144.386C39.1272 143.867 39.1234 143.287 38.9849 142.663L38.9816 142.648L38.9779 142.634Z" stroke="#DAF4FF" stroke-width="1.65552"/>
</g>
</g>
<defs>
<filter id="filter0_f_599_1329" x="79.0992" y="120.795" width="52.153" height="23.6481" filterUnits="userSpaceOnUse" color-interpolation-filters="sRGB">
<feFlood flood-opacity="0" result="BackgroundImageFix"/>
<feBlend mode="normal" in="SourceGraphic" in2="BackgroundImageFix" result="shape"/>
<feGaussianBlur stdDeviation="3.03" result="effect1_foregroundBlur_599_1329"/>
</filter>
<filter id="filter1_f_599_1329" x="83.1365" y="123.51" width="44.3757" height="17.1931" filterUnits="userSpaceOnUse" color-interpolation-filters="sRGB">
<feFlood flood-opacity="0" result="BackgroundImageFix"/>
<feBlend mode="normal" in="SourceGraphic" in2="BackgroundImageFix" result="shape"/>
<feGaussianBlur stdDeviation="1.01" result="effect1_foregroundBlur_599_1329"/>
</filter>
<filter id="filter2_ddi_599_1329" x="82.5349" y="127.133" width="45.0833" height="15.6966" filterUnits="userSpaceOnUse" color-interpolation-filters="sRGB">
<feFlood flood-opacity="0" result="BackgroundImageFix"/>
<feColorMatrix in="SourceAlpha" type="matrix" values="0 0 0 0 0 0 0 0 0 0 0 0 0 0 0 0 0 0 127 0" result="hardAlpha"/>
<feOffset dy="2.6"/>
<feGaussianBlur stdDeviation="1"/>
<feColorMatrix type="matrix" values="0 0 0 0 0 0 0 0 0 0.051 0 0 0 0 0.082 0 0 0 0.7 0"/>
<feBlend mode="multiply" in2="BackgroundImageFix" result="effect1_dropShadow_599_1329"/>
<feColorMatrix in="SourceAlpha" type="matrix" values="0 0 0 0 0 0 0 0 0 0 0 0 0 0 0 0 0 0 127 0" result="hardAlpha"/>
<feOffset dy="2.02"/>
<feGaussianBlur stdDeviation="1.313"/>
<feColorMatrix type="matrix" values="0 0 0 0 0.831373 0 0 0 0 0.898039 0 0 0 0 1 0 0 0 0.823529 0"/>
<feBlend mode="color-dodge" in2="effect1_dropShadow_599_1329" result="effect2_dropShadow_599_1329"/>
<feBlend mode="normal" in="SourceGraphic" in2="effect2_dropShadow_599_1329" result="shape"/>
<feColorMatrix in="SourceAlpha" type="matrix" values="0 0 0 0 0 0 0 0 0 0 0 0 0 0 0 0 0 0 127 0" result="hardAlpha"/>
<feOffset dx="-0.26" dy="0.52"/>
<feGaussianBlur stdDeviation="0.13"/>
<feComposite in2="hardAlpha" operator="arithmetic" k2="-1" k3="1"/>
<feColorMatrix type="matrix" values="0 0 0 0 1 0 0 0 0 1 0 0 0 0 1 0 0 0 0.5 0"/>
<feBlend mode="normal" in2="shape" result="effect3_innerShadow_599_1329"/>
</filter>
<filter id="filter3_f_599_1329" x="84.7582" y="126.013" width="40.9338" height="12.8698" filterUnits="userSpaceOnUse" color-interpolation-filters="sRGB">
<feFlood flood-opacity="0" result="BackgroundImageFix"/>
<feBlend mode="normal" in="SourceGraphic" in2="BackgroundImageFix" result="shape"/>
<feGaussianBlur stdDeviation="0.2" result="effect1_foregroundBlur_599_1329"/>
</filter>
<filter id="filter4_f_599_1329" x="20.1043" y="-2.67816" width="25.4074" height="19.2528" filterUnits="userSpaceOnUse" color-interpolation-filters="sRGB">
<feFlood flood-opacity="0" result="BackgroundImageFix"/>
<feBlend mode="normal" in="SourceGraphic" in2="BackgroundImageFix" result="shape"/>
<feGaussianBlur stdDeviation="3.03" result="effect1_foregroundBlur_599_1329"/>
</filter>
<filter id="filter5_f_599_1329" x="23.7464" y="0.961934" width="17.9541" height="11.6157" filterUnits="userSpaceOnUse" color-interpolation-filters="sRGB">
<feFlood flood-opacity="0" result="BackgroundImageFix"/>
<feBlend mode="normal" in="SourceGraphic" in2="BackgroundImageFix" result="shape"/>
<feGaussianBlur stdDeviation="1.01" result="effect1_foregroundBlur_599_1329"/>
</filter>
<filter id="filter6_ddi_599_1329" x="23.5383" y="2.77584" width="18.5394" height="12.3848" filterUnits="userSpaceOnUse" color-interpolation-filters="sRGB">
<feFlood flood-opacity="0" result="BackgroundImageFix"/>
<feColorMatrix in="SourceAlpha" type="matrix" values="0 0 0 0 0 0 0 0 0 0 0 0 0 0 0 0 0 0 127 0" result="hardAlpha"/>
<feOffset dy="2.6"/>
<feGaussianBlur stdDeviation="1"/>
<feColorMatrix type="matrix" values="0 0 0 0 0 0 0 0 0 0.051 0 0 0 0 0.082 0 0 0 0.7 0"/>
<feBlend mode="multiply" in2="BackgroundImageFix" result="effect1_dropShadow_599_1329"/>
<feColorMatrix in="SourceAlpha" type="matrix" values="0 0 0 0 0 0 0 0 0 0 0 0 0 0 0 0 0 0 127 0" result="hardAlpha"/>
<feOffset dy="2.02"/>
<feGaussianBlur stdDeviation="1.313"/>
<feColorMatrix type="matrix" values="0 0 0 0 0 0 0 0 0 0.4 0 0 0 0 1 0 0 0 1 0"/>
<feBlend mode="color-dodge" in2="effect1_dropShadow_599_1329" result="effect2_dropShadow_599_1329"/>
<feBlend mode="normal" in="SourceGraphic" in2="effect2_dropShadow_599_1329" result="shape"/>
<feColorMatrix in="SourceAlpha" type="matrix" values="0 0 0 0 0 0 0 0 0 0 0 0 0 0 0 0 0 0 127 0" result="hardAlpha"/>
<feOffset dx="-0.26" dy="0.52"/>
<feGaussianBlur stdDeviation="0.13"/>
<feComposite in2="hardAlpha" operator="arithmetic" k2="-1" k3="1"/>
<feColorMatrix type="matrix" values="0 0 0 0 1 0 0 0 0 1 0 0 0 0 1 0 0 0 0.5 0"/>
<feBlend mode="normal" in2="shape" result="effect3_innerShadow_599_1329"/>
</filter>
<filter id="filter7_f_599_1329" x="26.2616" y="3.48184" width="13.3042" height="7.38032" filterUnits="userSpaceOnUse" color-interpolation-filters="sRGB">
<feFlood flood-opacity="0" result="BackgroundImageFix"/>
<feBlend mode="normal" in="SourceGraphic" in2="BackgroundImageFix" result="shape"/>
<feGaussianBlur stdDeviation="0.2" result="effect1_foregroundBlur_599_1329"/>
</filter>
<filter id="filter8_f_599_1329" x="-3.32855" y="0.4129" width="106.255" height="155.349" filterUnits="userSpaceOnUse" color-interpolation-filters="sRGB">
<feFlood flood-opacity="0" result="BackgroundImageFix"/>
<feBlend mode="normal" in="SourceGraphic" in2="BackgroundImageFix" result="shape"/>
<feGaussianBlur stdDeviation="3.03" result="effect1_foregroundBlur_599_1329"/>
</filter>
<filter id="filter9_f_599_1329" x="0.411397" y="4.15285" width="98.7751" height="147.869" filterUnits="userSpaceOnUse" color-interpolation-filters="sRGB">
<feFlood flood-opacity="0" result="BackgroundImageFix"/>
<feBlend mode="normal" in="SourceGraphic" in2="BackgroundImageFix" result="shape"/>
<feGaussianBlur stdDeviation="1.01" result="effect1_foregroundBlur_599_1329"/>
</filter>
<filter id="filter10_ddi_599_1329" x="0.305397" y="6.06685" width="98.9871" height="148.081" filterUnits="userSpaceOnUse" color-interpolation-filters="sRGB">
<feFlood flood-opacity="0" result="BackgroundImageFix"/>
<feColorMatrix in="SourceAlpha" type="matrix" values="0 0 0 0 0 0 0 0 0 0 0 0 0 0 0 0 0 0 127 0" result="hardAlpha"/>
<feOffset dy="2.6"/>
<feGaussianBlur stdDeviation="1"/>
<feColorMatrix type="matrix" values="0 0 0 0 0 0 0 0 0 0.051 0 0 0 0 0.082 0 0 0 0.7 0"/>
<feBlend mode="multiply" in2="BackgroundImageFix" result="effect1_dropShadow_599_1329"/>
<feColorMatrix in="SourceAlpha" type="matrix" values="0 0 0 0 0 0 0 0 0 0 0 0 0 0 0 0 0 0 127 0" result="hardAlpha"/>
<feOffset dy="2.02"/>
<feGaussianBlur stdDeviation="1.313"/>
<feColorMatrix type="matrix" values="0 0 0 0 0.83 0 0 0 0 0.898 0 0 0 0 1 0 0 0 1 0"/>
<feBlend mode="color-dodge" in2="effect1_dropShadow_599_1329" result="effect2_dropShadow_599_1329"/>
<feBlend mode="normal" in="SourceGraphic" in2="effect2_dropShadow_599_1329" result="shape"/>
<feColorMatrix in="SourceAlpha" type="matrix" values="0 0 0 0 0 0 0 0 0 0 0 0 0 0 0 0 0 0 127 0" result="hardAlpha"/>
<feOffset dx="-0.26" dy="0.52"/>
<feGaussianBlur stdDeviation="0.13"/>
<feComposite in2="hardAlpha" operator="arithmetic" k2="-1" k3="1"/>
<feColorMatrix type="matrix" values="0 0 0 0 1 0 0 0 0 1 0 0 0 0 1 0 0 0 0.5 0"/>
<feBlend mode="normal" in2="shape" result="effect3_innerShadow_599_1329"/>
</filter>
<filter id="filter11_f_599_1329" x="2.23135" y="5.9728" width="95.1352" height="144.229" filterUnits="userSpaceOnUse" color-interpolation-filters="sRGB">
<feFlood flood-opacity="0" result="BackgroundImageFix"/>
<feBlend mode="normal" in="SourceGraphic" in2="BackgroundImageFix" result="shape"/>
<feGaussianBlur stdDeviation="0.2" result="effect1_foregroundBlur_599_1329"/>
</filter>
<filter id="filter12_f_599_1329" x="32.2597" y="92.8176" width="42.8644" height="64.9415" filterUnits="userSpaceOnUse" color-interpolation-filters="sRGB">
<feFlood flood-opacity="0" result="BackgroundImageFix"/>
<feBlend mode="normal" in="SourceGraphic" in2="BackgroundImageFix" result="shape"/>
<feGaussianBlur stdDeviation="2.75113" result="effect1_foregroundBlur_599_1329"/>
</filter>
<filter id="filter13_f_599_1329" x="35.9279" y="96.4857" width="35.528" height="57.6052" filterUnits="userSpaceOnUse" color-interpolation-filters="sRGB">
<feFlood flood-opacity="0" result="BackgroundImageFix"/>
<feBlend mode="normal" in="SourceGraphic" in2="BackgroundImageFix" result="shape"/>
<feGaussianBlur stdDeviation="0.917042" result="effect1_foregroundBlur_599_1329"/>
</filter>
<filter id="filter14_ddi_599_1329" x="35.3777" y="97.7696" width="36.6285" height="58.7056" filterUnits="userSpaceOnUse" color-interpolation-filters="sRGB">
<feFlood flood-opacity="0" result="BackgroundImageFix"/>
<feColorMatrix in="SourceAlpha" type="matrix" values="0 0 0 0 0 0 0 0 0 0 0 0 0 0 0 0 0 0 127 0" result="hardAlpha"/>
<feOffset dy="2.3607"/>
<feGaussianBlur stdDeviation="0.907963"/>
<feColorMatrix type="matrix" values="0 0 0 0 0 0 0 0 0 0.051 0 0 0 0 0.082 0 0 0 0.7 0"/>
<feBlend mode="multiply" in2="BackgroundImageFix" result="effect1_dropShadow_599_1329"/>
<feColorMatrix in="SourceAlpha" type="matrix" values="0 0 0 0 0 0 0 0 0 0 0 0 0 0 0 0 0 0 127 0" result="hardAlpha"/>
<feOffset dy="1.83408"/>
<feGaussianBlur stdDeviation="1.19215"/>
<feColorMatrix type="matrix" values="0 0 0 0 0.831373 0 0 0 0 0.898039 0 0 0 0 1 0 0 0 1 0"/>
<feBlend mode="color-dodge" in2="effect1_dropShadow_599_1329" result="effect2_dropShadow_599_1329"/>
<feBlend mode="normal" in="SourceGraphic" in2="effect2_dropShadow_599_1329" result="shape"/>
<feColorMatrix in="SourceAlpha" type="matrix" values="0 0 0 0 0 0 0 0 0 0 0 0 0 0 0 0 0 0 127 0" result="hardAlpha"/>
<feOffset dx="-0.23607" dy="0.47214"/>
<feGaussianBlur stdDeviation="0.118035"/>
<feComposite in2="hardAlpha" operator="arithmetic" k2="-1" k3="1"/>
<feColorMatrix type="matrix" values="0 0 0 0 1 0 0 0 0 1 0 0 0 0 1 0 0 0 0.5 0"/>
<feBlend mode="normal" in2="shape" result="effect3_innerShadow_599_1329"/>
</filter>
<filter id="filter15_f_599_1329" x="37.3988" y="97.9566" width="32.5862" height="54.6634" filterUnits="userSpaceOnUse" color-interpolation-filters="sRGB">
<feFlood flood-opacity="0" result="BackgroundImageFix"/>
<feBlend mode="normal" in="SourceGraphic" in2="BackgroundImageFix" result="shape"/>
<feGaussianBlur stdDeviation="0.181592" result="effect1_foregroundBlur_599_1329"/>
</filter>
<filter id="filter16_f_599_1329" x="10.5232" y="70.3074" width="35.8289" height="87.0882" filterUnits="userSpaceOnUse" color-interpolation-filters="sRGB">
<feFlood flood-opacity="0" result="BackgroundImageFix"/>
<feBlend mode="normal" in="SourceGraphic" in2="BackgroundImageFix" result="shape"/>
<feGaussianBlur stdDeviation="3.13514" result="effect1_foregroundBlur_599_1329"/>
</filter>
<filter id="filter17_f_599_1329" x="14.7034" y="74.4875" width="27.4685" height="78.7278" filterUnits="userSpaceOnUse" color-interpolation-filters="sRGB">
<feFlood flood-opacity="0" result="BackgroundImageFix"/>
<feBlend mode="normal" in="SourceGraphic" in2="BackgroundImageFix" result="shape"/>
<feGaussianBlur stdDeviation="1.04505" result="effect1_foregroundBlur_599_1329"/>
</filter>
<filter id="filter18_ddi_599_1329" x="14.0763" y="75.9506" width="28.7226" height="79.9819" filterUnits="userSpaceOnUse" color-interpolation-filters="sRGB">
<feFlood flood-opacity="0" result="BackgroundImageFix"/>
<feColorMatrix in="SourceAlpha" type="matrix" values="0 0 0 0 0 0 0 0 0 0 0 0 0 0 0 0 0 0 127 0" result="hardAlpha"/>
<feOffset dy="2.69022"/>
<feGaussianBlur stdDeviation="1.0347"/>
<feColorMatrix type="matrix" values="0 0 0 0 0 0 0 0 0 0.051 0 0 0 0 0.082 0 0 0 0.7 0"/>
<feBlend mode="multiply" in2="BackgroundImageFix" result="effect1_dropShadow_599_1329"/>
<feColorMatrix in="SourceAlpha" type="matrix" values="0 0 0 0 0 0 0 0 0 0 0 0 0 0 0 0 0 0 127 0" result="hardAlpha"/>
<feOffset dy="2.09009"/>
<feGaussianBlur stdDeviation="1.35856"/>
<feColorMatrix type="matrix" values="0 0 0 0 0.831373 0 0 0 0 0.898039 0 0 0 0 1 0 0 0 1 0"/>
<feBlend mode="color-dodge" in2="effect1_dropShadow_599_1329" result="effect2_dropShadow_599_1329"/>
<feBlend mode="normal" in="SourceGraphic" in2="effect2_dropShadow_599_1329" result="shape"/>
<feColorMatrix in="SourceAlpha" type="matrix" values="0 0 0 0 0 0 0 0 0 0 0 0 0 0 0 0 0 0 127 0" result="hardAlpha"/>
<feOffset dx="-0.269022" dy="0.538044"/>
<feGaussianBlur stdDeviation="0.134511"/>
<feComposite in2="hardAlpha" operator="arithmetic" k2="-1" k3="1"/>
<feColorMatrix type="matrix" values="0 0 0 0 1 0 0 0 0 1 0 0 0 0 1 0 0 0 0.5 0"/>
<feBlend mode="normal" in2="shape" result="effect3_innerShadow_599_1329"/>
</filter>
<filter id="filter19_f_599_1329" x="16.3796" y="76.1638" width="24.1161" height="75.3754" filterUnits="userSpaceOnUse" color-interpolation-filters="sRGB">
<feFlood flood-opacity="0" result="BackgroundImageFix"/>
<feBlend mode="normal" in="SourceGraphic" in2="BackgroundImageFix" result="shape"/>
<feGaussianBlur stdDeviation="0.20694" result="effect1_foregroundBlur_599_1329"/>
</filter>
<clipPath id="clip0_599_1329">
<rect width="129" height="156" fill="white"/>
</clipPath>
</defs>
</svg>
